G04 #@! TF.FileFunction,Legend,Top*
%FSLAX46Y46*%
G04 Gerber Fmt 4.6, Leading zero omitted, Abs format (unit mm)*
G04 Created by KiCad (PCBNEW 4.0.7-e2-6376~60~ubuntu17.10.1) date Thu Apr 12 22:39:31 2018*
%MOMM*%
%LPD*%
G01*
G04 APERTURE LIST*
%ADD10C,0.100000*%
%ADD11C,0.120000*%
%ADD12C,0.150000*%
G04 APERTURE END LIST*
D10*
D11*
X149800000Y-77300000D02*
X190560000Y-77300000D01*
X190560000Y-77300000D02*
X190560000Y-74640000D01*
X190560000Y-74640000D02*
X149800000Y-74640000D01*
X149800000Y-74640000D02*
X149800000Y-77300000D01*
X150750000Y-74640000D02*
X150750000Y-68640000D01*
X150750000Y-68640000D02*
X151510000Y-68640000D01*
X151510000Y-68640000D02*
X151510000Y-74640000D01*
X150810000Y-74640000D02*
X150810000Y-68640000D01*
X150930000Y-74640000D02*
X150930000Y-68640000D01*
X151050000Y-74640000D02*
X151050000Y-68640000D01*
X151170000Y-74640000D02*
X151170000Y-68640000D01*
X151290000Y-74640000D02*
X151290000Y-68640000D01*
X151410000Y-74640000D02*
X151410000Y-68640000D01*
X150750000Y-77630000D02*
X150750000Y-77300000D01*
X151510000Y-77630000D02*
X151510000Y-77300000D01*
X152400000Y-77300000D02*
X152400000Y-74640000D01*
X153290000Y-74640000D02*
X153290000Y-68640000D01*
X153290000Y-68640000D02*
X154050000Y-68640000D01*
X154050000Y-68640000D02*
X154050000Y-74640000D01*
X153290000Y-77697071D02*
X153290000Y-77300000D01*
X154050000Y-77697071D02*
X154050000Y-77300000D01*
X154940000Y-77300000D02*
X154940000Y-74640000D01*
X155830000Y-74640000D02*
X155830000Y-68640000D01*
X155830000Y-68640000D02*
X156590000Y-68640000D01*
X156590000Y-68640000D02*
X156590000Y-74640000D01*
X155830000Y-77697071D02*
X155830000Y-77300000D01*
X156590000Y-77697071D02*
X156590000Y-77300000D01*
X157480000Y-77300000D02*
X157480000Y-74640000D01*
X158370000Y-74640000D02*
X158370000Y-68640000D01*
X158370000Y-68640000D02*
X159130000Y-68640000D01*
X159130000Y-68640000D02*
X159130000Y-74640000D01*
X158370000Y-77697071D02*
X158370000Y-77300000D01*
X159130000Y-77697071D02*
X159130000Y-77300000D01*
X160020000Y-77300000D02*
X160020000Y-74640000D01*
X160910000Y-74640000D02*
X160910000Y-68640000D01*
X160910000Y-68640000D02*
X161670000Y-68640000D01*
X161670000Y-68640000D02*
X161670000Y-74640000D01*
X160910000Y-77697071D02*
X160910000Y-77300000D01*
X161670000Y-77697071D02*
X161670000Y-77300000D01*
X162560000Y-77300000D02*
X162560000Y-74640000D01*
X163450000Y-74640000D02*
X163450000Y-68640000D01*
X163450000Y-68640000D02*
X164210000Y-68640000D01*
X164210000Y-68640000D02*
X164210000Y-74640000D01*
X163450000Y-77697071D02*
X163450000Y-77300000D01*
X164210000Y-77697071D02*
X164210000Y-77300000D01*
X165100000Y-77300000D02*
X165100000Y-74640000D01*
X165990000Y-74640000D02*
X165990000Y-68640000D01*
X165990000Y-68640000D02*
X166750000Y-68640000D01*
X166750000Y-68640000D02*
X166750000Y-74640000D01*
X165990000Y-77697071D02*
X165990000Y-77300000D01*
X166750000Y-77697071D02*
X166750000Y-77300000D01*
X167640000Y-77300000D02*
X167640000Y-74640000D01*
X168530000Y-74640000D02*
X168530000Y-68640000D01*
X168530000Y-68640000D02*
X169290000Y-68640000D01*
X169290000Y-68640000D02*
X169290000Y-74640000D01*
X168530000Y-77697071D02*
X168530000Y-77300000D01*
X169290000Y-77697071D02*
X169290000Y-77300000D01*
X170180000Y-77300000D02*
X170180000Y-74640000D01*
X171070000Y-74640000D02*
X171070000Y-68640000D01*
X171070000Y-68640000D02*
X171830000Y-68640000D01*
X171830000Y-68640000D02*
X171830000Y-74640000D01*
X171070000Y-77697071D02*
X171070000Y-77300000D01*
X171830000Y-77697071D02*
X171830000Y-77300000D01*
X172720000Y-77300000D02*
X172720000Y-74640000D01*
X173610000Y-74640000D02*
X173610000Y-68640000D01*
X173610000Y-68640000D02*
X174370000Y-68640000D01*
X174370000Y-68640000D02*
X174370000Y-74640000D01*
X173610000Y-77697071D02*
X173610000Y-77300000D01*
X174370000Y-77697071D02*
X174370000Y-77300000D01*
X175260000Y-77300000D02*
X175260000Y-74640000D01*
X176150000Y-74640000D02*
X176150000Y-68640000D01*
X176150000Y-68640000D02*
X176910000Y-68640000D01*
X176910000Y-68640000D02*
X176910000Y-74640000D01*
X176150000Y-77697071D02*
X176150000Y-77300000D01*
X176910000Y-77697071D02*
X176910000Y-77300000D01*
X177800000Y-77300000D02*
X177800000Y-74640000D01*
X178690000Y-74640000D02*
X178690000Y-68640000D01*
X178690000Y-68640000D02*
X179450000Y-68640000D01*
X179450000Y-68640000D02*
X179450000Y-74640000D01*
X178690000Y-77697071D02*
X178690000Y-77300000D01*
X179450000Y-77697071D02*
X179450000Y-77300000D01*
X180340000Y-77300000D02*
X180340000Y-74640000D01*
X181230000Y-74640000D02*
X181230000Y-68640000D01*
X181230000Y-68640000D02*
X181990000Y-68640000D01*
X181990000Y-68640000D02*
X181990000Y-74640000D01*
X181230000Y-77697071D02*
X181230000Y-77300000D01*
X181990000Y-77697071D02*
X181990000Y-77300000D01*
X182880000Y-77300000D02*
X182880000Y-74640000D01*
X183770000Y-74640000D02*
X183770000Y-68640000D01*
X183770000Y-68640000D02*
X184530000Y-68640000D01*
X184530000Y-68640000D02*
X184530000Y-74640000D01*
X183770000Y-77697071D02*
X183770000Y-77300000D01*
X184530000Y-77697071D02*
X184530000Y-77300000D01*
X185420000Y-77300000D02*
X185420000Y-74640000D01*
X186310000Y-74640000D02*
X186310000Y-68640000D01*
X186310000Y-68640000D02*
X187070000Y-68640000D01*
X187070000Y-68640000D02*
X187070000Y-74640000D01*
X186310000Y-77697071D02*
X186310000Y-77300000D01*
X187070000Y-77697071D02*
X187070000Y-77300000D01*
X187960000Y-77300000D02*
X187960000Y-74640000D01*
X188850000Y-74640000D02*
X188850000Y-68640000D01*
X188850000Y-68640000D02*
X189610000Y-68640000D01*
X189610000Y-68640000D02*
X189610000Y-74640000D01*
X188850000Y-77697071D02*
X188850000Y-77300000D01*
X189610000Y-77697071D02*
X189610000Y-77300000D01*
X151130000Y-80010000D02*
X149860000Y-80010000D01*
X149860000Y-80010000D02*
X149860000Y-78740000D01*
X92075000Y-89535000D02*
X106045000Y-89535000D01*
X106045000Y-89535000D02*
X106045000Y-103505000D01*
X106045000Y-103505000D02*
X92075000Y-103505000D01*
X92075000Y-103505000D02*
X92075000Y-89535000D01*
X111125000Y-89535000D02*
X125095000Y-89535000D01*
X125095000Y-89535000D02*
X125095000Y-103505000D01*
X125095000Y-103505000D02*
X111125000Y-103505000D01*
X111125000Y-103505000D02*
X111125000Y-89535000D01*
X130175000Y-89535000D02*
X144145000Y-89535000D01*
X144145000Y-89535000D02*
X144145000Y-103505000D01*
X144145000Y-103505000D02*
X130175000Y-103505000D01*
X130175000Y-103505000D02*
X130175000Y-89535000D01*
X149225000Y-89535000D02*
X163195000Y-89535000D01*
X163195000Y-89535000D02*
X163195000Y-103505000D01*
X163195000Y-103505000D02*
X149225000Y-103505000D01*
X149225000Y-103505000D02*
X149225000Y-89535000D01*
X168275000Y-89535000D02*
X182245000Y-89535000D01*
X182245000Y-89535000D02*
X182245000Y-103505000D01*
X182245000Y-103505000D02*
X168275000Y-103505000D01*
X168275000Y-103505000D02*
X168275000Y-89535000D01*
X187325000Y-89535000D02*
X201295000Y-89535000D01*
X201295000Y-89535000D02*
X201295000Y-103505000D01*
X201295000Y-103505000D02*
X187325000Y-103505000D01*
X187325000Y-103505000D02*
X187325000Y-89535000D01*
X206375000Y-89535000D02*
X220345000Y-89535000D01*
X220345000Y-89535000D02*
X220345000Y-103505000D01*
X220345000Y-103505000D02*
X206375000Y-103505000D01*
X206375000Y-103505000D02*
X206375000Y-89535000D01*
X225425000Y-89535000D02*
X239395000Y-89535000D01*
X239395000Y-89535000D02*
X239395000Y-103505000D01*
X239395000Y-103505000D02*
X225425000Y-103505000D01*
X225425000Y-103505000D02*
X225425000Y-89535000D01*
X244475000Y-89535000D02*
X258445000Y-89535000D01*
X258445000Y-89535000D02*
X258445000Y-103505000D01*
X258445000Y-103505000D02*
X244475000Y-103505000D01*
X244475000Y-103505000D02*
X244475000Y-89535000D01*
X107315000Y-127635000D02*
X121285000Y-127635000D01*
X121285000Y-127635000D02*
X121285000Y-141605000D01*
X121285000Y-141605000D02*
X107315000Y-141605000D01*
X107315000Y-141605000D02*
X107315000Y-127635000D01*
X193675000Y-146685000D02*
X207645000Y-146685000D01*
X207645000Y-146685000D02*
X207645000Y-160655000D01*
X207645000Y-160655000D02*
X193675000Y-160655000D01*
X193675000Y-160655000D02*
X193675000Y-146685000D01*
X155575000Y-146685000D02*
X169545000Y-146685000D01*
X169545000Y-146685000D02*
X169545000Y-160655000D01*
X169545000Y-160655000D02*
X155575000Y-160655000D01*
X155575000Y-160655000D02*
X155575000Y-146685000D01*
X329565000Y-108585000D02*
X343535000Y-108585000D01*
X343535000Y-108585000D02*
X343535000Y-122555000D01*
X343535000Y-122555000D02*
X329565000Y-122555000D01*
X329565000Y-122555000D02*
X329565000Y-108585000D01*
X297815000Y-127635000D02*
X311785000Y-127635000D01*
X311785000Y-127635000D02*
X311785000Y-141605000D01*
X311785000Y-141605000D02*
X297815000Y-141605000D01*
X297815000Y-141605000D02*
X297815000Y-127635000D01*
X250825000Y-146685000D02*
X264795000Y-146685000D01*
X264795000Y-146685000D02*
X264795000Y-160655000D01*
X264795000Y-160655000D02*
X250825000Y-160655000D01*
X250825000Y-160655000D02*
X250825000Y-146685000D01*
X145415000Y-127635000D02*
X159385000Y-127635000D01*
X159385000Y-127635000D02*
X159385000Y-141605000D01*
X159385000Y-141605000D02*
X145415000Y-141605000D01*
X145415000Y-141605000D02*
X145415000Y-127635000D01*
X301625000Y-89535000D02*
X315595000Y-89535000D01*
X315595000Y-89535000D02*
X315595000Y-103505000D01*
X315595000Y-103505000D02*
X301625000Y-103505000D01*
X301625000Y-103505000D02*
X301625000Y-89535000D01*
X291465000Y-70485000D02*
X305435000Y-70485000D01*
X305435000Y-70485000D02*
X305435000Y-84455000D01*
X305435000Y-84455000D02*
X291465000Y-84455000D01*
X291465000Y-84455000D02*
X291465000Y-70485000D01*
X139065000Y-108585000D02*
X153035000Y-108585000D01*
X153035000Y-108585000D02*
X153035000Y-122555000D01*
X153035000Y-122555000D02*
X139065000Y-122555000D01*
X139065000Y-122555000D02*
X139065000Y-108585000D01*
X164465000Y-127635000D02*
X178435000Y-127635000D01*
X178435000Y-127635000D02*
X178435000Y-141605000D01*
X178435000Y-141605000D02*
X164465000Y-141605000D01*
X164465000Y-141605000D02*
X164465000Y-127635000D01*
X288925000Y-146685000D02*
X302895000Y-146685000D01*
X302895000Y-146685000D02*
X302895000Y-160655000D01*
X302895000Y-160655000D02*
X288925000Y-160655000D01*
X288925000Y-160655000D02*
X288925000Y-146685000D01*
X183515000Y-127635000D02*
X197485000Y-127635000D01*
X197485000Y-127635000D02*
X197485000Y-141605000D01*
X197485000Y-141605000D02*
X183515000Y-141605000D01*
X183515000Y-141605000D02*
X183515000Y-127635000D01*
X202565000Y-127635000D02*
X216535000Y-127635000D01*
X216535000Y-127635000D02*
X216535000Y-141605000D01*
X216535000Y-141605000D02*
X202565000Y-141605000D01*
X202565000Y-141605000D02*
X202565000Y-127635000D01*
X282575000Y-89535000D02*
X296545000Y-89535000D01*
X296545000Y-89535000D02*
X296545000Y-103505000D01*
X296545000Y-103505000D02*
X282575000Y-103505000D01*
X282575000Y-103505000D02*
X282575000Y-89535000D01*
X234315000Y-108585000D02*
X248285000Y-108585000D01*
X248285000Y-108585000D02*
X248285000Y-122555000D01*
X248285000Y-122555000D02*
X234315000Y-122555000D01*
X234315000Y-122555000D02*
X234315000Y-108585000D01*
X221615000Y-127635000D02*
X235585000Y-127635000D01*
X235585000Y-127635000D02*
X235585000Y-141605000D01*
X235585000Y-141605000D02*
X221615000Y-141605000D01*
X221615000Y-141605000D02*
X221615000Y-127635000D01*
X240665000Y-127635000D02*
X254635000Y-127635000D01*
X254635000Y-127635000D02*
X254635000Y-141605000D01*
X254635000Y-141605000D02*
X240665000Y-141605000D01*
X240665000Y-141605000D02*
X240665000Y-127635000D01*
X259715000Y-127635000D02*
X273685000Y-127635000D01*
X273685000Y-127635000D02*
X273685000Y-141605000D01*
X273685000Y-141605000D02*
X259715000Y-141605000D01*
X259715000Y-141605000D02*
X259715000Y-127635000D01*
X253365000Y-70485000D02*
X267335000Y-70485000D01*
X267335000Y-70485000D02*
X267335000Y-84455000D01*
X267335000Y-84455000D02*
X253365000Y-84455000D01*
X253365000Y-84455000D02*
X253365000Y-70485000D01*
X80645000Y-127635000D02*
X94615000Y-127635000D01*
X94615000Y-127635000D02*
X94615000Y-141605000D01*
X94615000Y-141605000D02*
X80645000Y-141605000D01*
X80645000Y-141605000D02*
X80645000Y-127635000D01*
X231775000Y-146685000D02*
X245745000Y-146685000D01*
X245745000Y-146685000D02*
X245745000Y-160655000D01*
X245745000Y-160655000D02*
X231775000Y-160655000D01*
X231775000Y-160655000D02*
X231775000Y-146685000D01*
X111125000Y-165735000D02*
X125095000Y-165735000D01*
X125095000Y-165735000D02*
X125095000Y-179705000D01*
X125095000Y-179705000D02*
X111125000Y-179705000D01*
X111125000Y-179705000D02*
X111125000Y-165735000D01*
X320675000Y-89535000D02*
X334645000Y-89535000D01*
X334645000Y-89535000D02*
X334645000Y-103505000D01*
X334645000Y-103505000D02*
X320675000Y-103505000D01*
X320675000Y-103505000D02*
X320675000Y-89535000D01*
X212725000Y-146685000D02*
X226695000Y-146685000D01*
X226695000Y-146685000D02*
X226695000Y-160655000D01*
X226695000Y-160655000D02*
X212725000Y-160655000D01*
X212725000Y-160655000D02*
X212725000Y-146685000D01*
X253365000Y-108585000D02*
X267335000Y-108585000D01*
X267335000Y-108585000D02*
X267335000Y-122555000D01*
X267335000Y-122555000D02*
X253365000Y-122555000D01*
X253365000Y-122555000D02*
X253365000Y-108585000D01*
X310515000Y-108585000D02*
X324485000Y-108585000D01*
X324485000Y-108585000D02*
X324485000Y-122555000D01*
X324485000Y-122555000D02*
X310515000Y-122555000D01*
X310515000Y-122555000D02*
X310515000Y-108585000D01*
X272415000Y-108585000D02*
X286385000Y-108585000D01*
X286385000Y-108585000D02*
X286385000Y-122555000D01*
X286385000Y-122555000D02*
X272415000Y-122555000D01*
X272415000Y-122555000D02*
X272415000Y-108585000D01*
X269875000Y-146685000D02*
X283845000Y-146685000D01*
X283845000Y-146685000D02*
X283845000Y-160655000D01*
X283845000Y-160655000D02*
X269875000Y-160655000D01*
X269875000Y-160655000D02*
X269875000Y-146685000D01*
X100965000Y-108585000D02*
X114935000Y-108585000D01*
X114935000Y-108585000D02*
X114935000Y-122555000D01*
X114935000Y-122555000D02*
X100965000Y-122555000D01*
X100965000Y-122555000D02*
X100965000Y-108585000D01*
X158115000Y-108585000D02*
X172085000Y-108585000D01*
X172085000Y-108585000D02*
X172085000Y-122555000D01*
X172085000Y-122555000D02*
X158115000Y-122555000D01*
X158115000Y-122555000D02*
X158115000Y-108585000D01*
X329565000Y-127635000D02*
X343535000Y-127635000D01*
X343535000Y-127635000D02*
X343535000Y-141605000D01*
X343535000Y-141605000D02*
X329565000Y-141605000D01*
X329565000Y-141605000D02*
X329565000Y-127635000D01*
X310515000Y-70485000D02*
X324485000Y-70485000D01*
X324485000Y-70485000D02*
X324485000Y-84455000D01*
X324485000Y-84455000D02*
X310515000Y-84455000D01*
X310515000Y-84455000D02*
X310515000Y-70485000D01*
X126365000Y-127635000D02*
X140335000Y-127635000D01*
X140335000Y-127635000D02*
X140335000Y-141605000D01*
X140335000Y-141605000D02*
X126365000Y-141605000D01*
X126365000Y-141605000D02*
X126365000Y-127635000D01*
X278765000Y-127635000D02*
X292735000Y-127635000D01*
X292735000Y-127635000D02*
X292735000Y-141605000D01*
X292735000Y-141605000D02*
X278765000Y-141605000D01*
X278765000Y-141605000D02*
X278765000Y-127635000D01*
X85725000Y-146685000D02*
X99695000Y-146685000D01*
X99695000Y-146685000D02*
X99695000Y-160655000D01*
X99695000Y-160655000D02*
X85725000Y-160655000D01*
X85725000Y-160655000D02*
X85725000Y-146685000D01*
X207645000Y-165735000D02*
X221615000Y-165735000D01*
X221615000Y-165735000D02*
X221615000Y-179705000D01*
X221615000Y-179705000D02*
X207645000Y-179705000D01*
X207645000Y-179705000D02*
X207645000Y-165735000D01*
X177165000Y-108585000D02*
X191135000Y-108585000D01*
X191135000Y-108585000D02*
X191135000Y-122555000D01*
X191135000Y-122555000D02*
X177165000Y-122555000D01*
X177165000Y-122555000D02*
X177165000Y-108585000D01*
X215265000Y-108585000D02*
X229235000Y-108585000D01*
X229235000Y-108585000D02*
X229235000Y-122555000D01*
X229235000Y-122555000D02*
X215265000Y-122555000D01*
X215265000Y-122555000D02*
X215265000Y-108585000D01*
X291465000Y-108585000D02*
X305435000Y-108585000D01*
X305435000Y-108585000D02*
X305435000Y-122555000D01*
X305435000Y-122555000D02*
X291465000Y-122555000D01*
X291465000Y-122555000D02*
X291465000Y-108585000D01*
X272415000Y-70485000D02*
X286385000Y-70485000D01*
X286385000Y-70485000D02*
X286385000Y-84455000D01*
X286385000Y-84455000D02*
X272415000Y-84455000D01*
X272415000Y-84455000D02*
X272415000Y-70485000D01*
X174625000Y-146685000D02*
X188595000Y-146685000D01*
X188595000Y-146685000D02*
X188595000Y-160655000D01*
X188595000Y-160655000D02*
X174625000Y-160655000D01*
X174625000Y-160655000D02*
X174625000Y-146685000D01*
X120015000Y-108585000D02*
X133985000Y-108585000D01*
X133985000Y-108585000D02*
X133985000Y-122555000D01*
X133985000Y-122555000D02*
X120015000Y-122555000D01*
X120015000Y-122555000D02*
X120015000Y-108585000D01*
X136525000Y-146685000D02*
X150495000Y-146685000D01*
X150495000Y-146685000D02*
X150495000Y-160655000D01*
X150495000Y-160655000D02*
X136525000Y-160655000D01*
X136525000Y-160655000D02*
X136525000Y-146685000D01*
X196215000Y-108585000D02*
X210185000Y-108585000D01*
X210185000Y-108585000D02*
X210185000Y-122555000D01*
X210185000Y-122555000D02*
X196215000Y-122555000D01*
X196215000Y-122555000D02*
X196215000Y-108585000D01*
X117475000Y-146685000D02*
X131445000Y-146685000D01*
X131445000Y-146685000D02*
X131445000Y-160655000D01*
X131445000Y-160655000D02*
X117475000Y-160655000D01*
X117475000Y-160655000D02*
X117475000Y-146685000D01*
X263525000Y-89535000D02*
X277495000Y-89535000D01*
X277495000Y-89535000D02*
X277495000Y-103505000D01*
X277495000Y-103505000D02*
X263525000Y-103505000D01*
X263525000Y-103505000D02*
X263525000Y-89535000D01*
X325755000Y-146685000D02*
X339725000Y-146685000D01*
X339725000Y-146685000D02*
X339725000Y-160655000D01*
X339725000Y-160655000D02*
X325755000Y-160655000D01*
X325755000Y-160655000D02*
X325755000Y-146685000D01*
D12*
X148312381Y-74688333D02*
X149026667Y-74688333D01*
X149169524Y-74735953D01*
X149264762Y-74831191D01*
X149312381Y-74974048D01*
X149312381Y-75069286D01*
X149312381Y-73688333D02*
X149312381Y-74259762D01*
X149312381Y-73974048D02*
X148312381Y-73974048D01*
X148455238Y-74069286D01*
X148550476Y-74164524D01*
X148598095Y-74259762D01*
X97345714Y-89050762D02*
X97488571Y-89098381D01*
X97726667Y-89098381D01*
X97821905Y-89050762D01*
X97869524Y-89003143D01*
X97917143Y-88907905D01*
X97917143Y-88812667D01*
X97869524Y-88717429D01*
X97821905Y-88669810D01*
X97726667Y-88622190D01*
X97536190Y-88574571D01*
X97440952Y-88526952D01*
X97393333Y-88479333D01*
X97345714Y-88384095D01*
X97345714Y-88288857D01*
X97393333Y-88193619D01*
X97440952Y-88146000D01*
X97536190Y-88098381D01*
X97774286Y-88098381D01*
X97917143Y-88146000D01*
X98250476Y-88098381D02*
X98488571Y-89098381D01*
X98679048Y-88384095D01*
X98869524Y-89098381D01*
X99107619Y-88098381D01*
X99250476Y-89193619D02*
X100012381Y-89193619D01*
X100774286Y-89098381D02*
X100202857Y-89098381D01*
X100488571Y-89098381D02*
X100488571Y-88098381D01*
X100393333Y-88241238D01*
X100298095Y-88336476D01*
X100202857Y-88384095D01*
X116395714Y-89050762D02*
X116538571Y-89098381D01*
X116776667Y-89098381D01*
X116871905Y-89050762D01*
X116919524Y-89003143D01*
X116967143Y-88907905D01*
X116967143Y-88812667D01*
X116919524Y-88717429D01*
X116871905Y-88669810D01*
X116776667Y-88622190D01*
X116586190Y-88574571D01*
X116490952Y-88526952D01*
X116443333Y-88479333D01*
X116395714Y-88384095D01*
X116395714Y-88288857D01*
X116443333Y-88193619D01*
X116490952Y-88146000D01*
X116586190Y-88098381D01*
X116824286Y-88098381D01*
X116967143Y-88146000D01*
X117300476Y-88098381D02*
X117538571Y-89098381D01*
X117729048Y-88384095D01*
X117919524Y-89098381D01*
X118157619Y-88098381D01*
X118300476Y-89193619D02*
X119062381Y-89193619D01*
X119252857Y-88193619D02*
X119300476Y-88146000D01*
X119395714Y-88098381D01*
X119633810Y-88098381D01*
X119729048Y-88146000D01*
X119776667Y-88193619D01*
X119824286Y-88288857D01*
X119824286Y-88384095D01*
X119776667Y-88526952D01*
X119205238Y-89098381D01*
X119824286Y-89098381D01*
X135445714Y-89050762D02*
X135588571Y-89098381D01*
X135826667Y-89098381D01*
X135921905Y-89050762D01*
X135969524Y-89003143D01*
X136017143Y-88907905D01*
X136017143Y-88812667D01*
X135969524Y-88717429D01*
X135921905Y-88669810D01*
X135826667Y-88622190D01*
X135636190Y-88574571D01*
X135540952Y-88526952D01*
X135493333Y-88479333D01*
X135445714Y-88384095D01*
X135445714Y-88288857D01*
X135493333Y-88193619D01*
X135540952Y-88146000D01*
X135636190Y-88098381D01*
X135874286Y-88098381D01*
X136017143Y-88146000D01*
X136350476Y-88098381D02*
X136588571Y-89098381D01*
X136779048Y-88384095D01*
X136969524Y-89098381D01*
X137207619Y-88098381D01*
X137350476Y-89193619D02*
X138112381Y-89193619D01*
X138255238Y-88098381D02*
X138874286Y-88098381D01*
X138540952Y-88479333D01*
X138683810Y-88479333D01*
X138779048Y-88526952D01*
X138826667Y-88574571D01*
X138874286Y-88669810D01*
X138874286Y-88907905D01*
X138826667Y-89003143D01*
X138779048Y-89050762D01*
X138683810Y-89098381D01*
X138398095Y-89098381D01*
X138302857Y-89050762D01*
X138255238Y-89003143D01*
X154495714Y-89050762D02*
X154638571Y-89098381D01*
X154876667Y-89098381D01*
X154971905Y-89050762D01*
X155019524Y-89003143D01*
X155067143Y-88907905D01*
X155067143Y-88812667D01*
X155019524Y-88717429D01*
X154971905Y-88669810D01*
X154876667Y-88622190D01*
X154686190Y-88574571D01*
X154590952Y-88526952D01*
X154543333Y-88479333D01*
X154495714Y-88384095D01*
X154495714Y-88288857D01*
X154543333Y-88193619D01*
X154590952Y-88146000D01*
X154686190Y-88098381D01*
X154924286Y-88098381D01*
X155067143Y-88146000D01*
X155400476Y-88098381D02*
X155638571Y-89098381D01*
X155829048Y-88384095D01*
X156019524Y-89098381D01*
X156257619Y-88098381D01*
X156400476Y-89193619D02*
X157162381Y-89193619D01*
X157829048Y-88431714D02*
X157829048Y-89098381D01*
X157590952Y-88050762D02*
X157352857Y-88765048D01*
X157971905Y-88765048D01*
X173545714Y-89050762D02*
X173688571Y-89098381D01*
X173926667Y-89098381D01*
X174021905Y-89050762D01*
X174069524Y-89003143D01*
X174117143Y-88907905D01*
X174117143Y-88812667D01*
X174069524Y-88717429D01*
X174021905Y-88669810D01*
X173926667Y-88622190D01*
X173736190Y-88574571D01*
X173640952Y-88526952D01*
X173593333Y-88479333D01*
X173545714Y-88384095D01*
X173545714Y-88288857D01*
X173593333Y-88193619D01*
X173640952Y-88146000D01*
X173736190Y-88098381D01*
X173974286Y-88098381D01*
X174117143Y-88146000D01*
X174450476Y-88098381D02*
X174688571Y-89098381D01*
X174879048Y-88384095D01*
X175069524Y-89098381D01*
X175307619Y-88098381D01*
X175450476Y-89193619D02*
X176212381Y-89193619D01*
X176926667Y-88098381D02*
X176450476Y-88098381D01*
X176402857Y-88574571D01*
X176450476Y-88526952D01*
X176545714Y-88479333D01*
X176783810Y-88479333D01*
X176879048Y-88526952D01*
X176926667Y-88574571D01*
X176974286Y-88669810D01*
X176974286Y-88907905D01*
X176926667Y-89003143D01*
X176879048Y-89050762D01*
X176783810Y-89098381D01*
X176545714Y-89098381D01*
X176450476Y-89050762D01*
X176402857Y-89003143D01*
X192595714Y-89050762D02*
X192738571Y-89098381D01*
X192976667Y-89098381D01*
X193071905Y-89050762D01*
X193119524Y-89003143D01*
X193167143Y-88907905D01*
X193167143Y-88812667D01*
X193119524Y-88717429D01*
X193071905Y-88669810D01*
X192976667Y-88622190D01*
X192786190Y-88574571D01*
X192690952Y-88526952D01*
X192643333Y-88479333D01*
X192595714Y-88384095D01*
X192595714Y-88288857D01*
X192643333Y-88193619D01*
X192690952Y-88146000D01*
X192786190Y-88098381D01*
X193024286Y-88098381D01*
X193167143Y-88146000D01*
X193500476Y-88098381D02*
X193738571Y-89098381D01*
X193929048Y-88384095D01*
X194119524Y-89098381D01*
X194357619Y-88098381D01*
X194500476Y-89193619D02*
X195262381Y-89193619D01*
X195929048Y-88098381D02*
X195738571Y-88098381D01*
X195643333Y-88146000D01*
X195595714Y-88193619D01*
X195500476Y-88336476D01*
X195452857Y-88526952D01*
X195452857Y-88907905D01*
X195500476Y-89003143D01*
X195548095Y-89050762D01*
X195643333Y-89098381D01*
X195833810Y-89098381D01*
X195929048Y-89050762D01*
X195976667Y-89003143D01*
X196024286Y-88907905D01*
X196024286Y-88669810D01*
X195976667Y-88574571D01*
X195929048Y-88526952D01*
X195833810Y-88479333D01*
X195643333Y-88479333D01*
X195548095Y-88526952D01*
X195500476Y-88574571D01*
X195452857Y-88669810D01*
X211645714Y-89050762D02*
X211788571Y-89098381D01*
X212026667Y-89098381D01*
X212121905Y-89050762D01*
X212169524Y-89003143D01*
X212217143Y-88907905D01*
X212217143Y-88812667D01*
X212169524Y-88717429D01*
X212121905Y-88669810D01*
X212026667Y-88622190D01*
X211836190Y-88574571D01*
X211740952Y-88526952D01*
X211693333Y-88479333D01*
X211645714Y-88384095D01*
X211645714Y-88288857D01*
X211693333Y-88193619D01*
X211740952Y-88146000D01*
X211836190Y-88098381D01*
X212074286Y-88098381D01*
X212217143Y-88146000D01*
X212550476Y-88098381D02*
X212788571Y-89098381D01*
X212979048Y-88384095D01*
X213169524Y-89098381D01*
X213407619Y-88098381D01*
X213550476Y-89193619D02*
X214312381Y-89193619D01*
X214455238Y-88098381D02*
X215121905Y-88098381D01*
X214693333Y-89098381D01*
X230695714Y-89050762D02*
X230838571Y-89098381D01*
X231076667Y-89098381D01*
X231171905Y-89050762D01*
X231219524Y-89003143D01*
X231267143Y-88907905D01*
X231267143Y-88812667D01*
X231219524Y-88717429D01*
X231171905Y-88669810D01*
X231076667Y-88622190D01*
X230886190Y-88574571D01*
X230790952Y-88526952D01*
X230743333Y-88479333D01*
X230695714Y-88384095D01*
X230695714Y-88288857D01*
X230743333Y-88193619D01*
X230790952Y-88146000D01*
X230886190Y-88098381D01*
X231124286Y-88098381D01*
X231267143Y-88146000D01*
X231600476Y-88098381D02*
X231838571Y-89098381D01*
X232029048Y-88384095D01*
X232219524Y-89098381D01*
X232457619Y-88098381D01*
X232600476Y-89193619D02*
X233362381Y-89193619D01*
X233743333Y-88526952D02*
X233648095Y-88479333D01*
X233600476Y-88431714D01*
X233552857Y-88336476D01*
X233552857Y-88288857D01*
X233600476Y-88193619D01*
X233648095Y-88146000D01*
X233743333Y-88098381D01*
X233933810Y-88098381D01*
X234029048Y-88146000D01*
X234076667Y-88193619D01*
X234124286Y-88288857D01*
X234124286Y-88336476D01*
X234076667Y-88431714D01*
X234029048Y-88479333D01*
X233933810Y-88526952D01*
X233743333Y-88526952D01*
X233648095Y-88574571D01*
X233600476Y-88622190D01*
X233552857Y-88717429D01*
X233552857Y-88907905D01*
X233600476Y-89003143D01*
X233648095Y-89050762D01*
X233743333Y-89098381D01*
X233933810Y-89098381D01*
X234029048Y-89050762D01*
X234076667Y-89003143D01*
X234124286Y-88907905D01*
X234124286Y-88717429D01*
X234076667Y-88622190D01*
X234029048Y-88574571D01*
X233933810Y-88526952D01*
X249745714Y-89050762D02*
X249888571Y-89098381D01*
X250126667Y-89098381D01*
X250221905Y-89050762D01*
X250269524Y-89003143D01*
X250317143Y-88907905D01*
X250317143Y-88812667D01*
X250269524Y-88717429D01*
X250221905Y-88669810D01*
X250126667Y-88622190D01*
X249936190Y-88574571D01*
X249840952Y-88526952D01*
X249793333Y-88479333D01*
X249745714Y-88384095D01*
X249745714Y-88288857D01*
X249793333Y-88193619D01*
X249840952Y-88146000D01*
X249936190Y-88098381D01*
X250174286Y-88098381D01*
X250317143Y-88146000D01*
X250650476Y-88098381D02*
X250888571Y-89098381D01*
X251079048Y-88384095D01*
X251269524Y-89098381D01*
X251507619Y-88098381D01*
X251650476Y-89193619D02*
X252412381Y-89193619D01*
X252698095Y-89098381D02*
X252888571Y-89098381D01*
X252983810Y-89050762D01*
X253031429Y-89003143D01*
X253126667Y-88860286D01*
X253174286Y-88669810D01*
X253174286Y-88288857D01*
X253126667Y-88193619D01*
X253079048Y-88146000D01*
X252983810Y-88098381D01*
X252793333Y-88098381D01*
X252698095Y-88146000D01*
X252650476Y-88193619D01*
X252602857Y-88288857D01*
X252602857Y-88526952D01*
X252650476Y-88622190D01*
X252698095Y-88669810D01*
X252793333Y-88717429D01*
X252983810Y-88717429D01*
X253079048Y-88669810D01*
X253126667Y-88622190D01*
X253174286Y-88526952D01*
X112157143Y-127150762D02*
X112300000Y-127198381D01*
X112538096Y-127198381D01*
X112633334Y-127150762D01*
X112680953Y-127103143D01*
X112728572Y-127007905D01*
X112728572Y-126912667D01*
X112680953Y-126817429D01*
X112633334Y-126769810D01*
X112538096Y-126722190D01*
X112347619Y-126674571D01*
X112252381Y-126626952D01*
X112204762Y-126579333D01*
X112157143Y-126484095D01*
X112157143Y-126388857D01*
X112204762Y-126293619D01*
X112252381Y-126246000D01*
X112347619Y-126198381D01*
X112585715Y-126198381D01*
X112728572Y-126246000D01*
X113061905Y-126198381D02*
X113300000Y-127198381D01*
X113490477Y-126484095D01*
X113680953Y-127198381D01*
X113919048Y-126198381D01*
X114061905Y-127293619D02*
X114823810Y-127293619D01*
X115014286Y-126912667D02*
X115490477Y-126912667D01*
X114919048Y-127198381D02*
X115252381Y-126198381D01*
X115585715Y-127198381D01*
X116442858Y-127198381D02*
X115871429Y-127198381D01*
X116157143Y-127198381D02*
X116157143Y-126198381D01*
X116061905Y-126341238D01*
X115966667Y-126436476D01*
X115871429Y-126484095D01*
X198445714Y-146200762D02*
X198588571Y-146248381D01*
X198826667Y-146248381D01*
X198921905Y-146200762D01*
X198969524Y-146153143D01*
X199017143Y-146057905D01*
X199017143Y-145962667D01*
X198969524Y-145867429D01*
X198921905Y-145819810D01*
X198826667Y-145772190D01*
X198636190Y-145724571D01*
X198540952Y-145676952D01*
X198493333Y-145629333D01*
X198445714Y-145534095D01*
X198445714Y-145438857D01*
X198493333Y-145343619D01*
X198540952Y-145296000D01*
X198636190Y-145248381D01*
X198874286Y-145248381D01*
X199017143Y-145296000D01*
X199350476Y-145248381D02*
X199588571Y-146248381D01*
X199779048Y-145534095D01*
X199969524Y-146248381D01*
X200207619Y-145248381D01*
X200350476Y-146343619D02*
X201112381Y-146343619D01*
X201683810Y-145724571D02*
X201826667Y-145772190D01*
X201874286Y-145819810D01*
X201921905Y-145915048D01*
X201921905Y-146057905D01*
X201874286Y-146153143D01*
X201826667Y-146200762D01*
X201731429Y-146248381D01*
X201350476Y-146248381D01*
X201350476Y-145248381D01*
X201683810Y-145248381D01*
X201779048Y-145296000D01*
X201826667Y-145343619D01*
X201874286Y-145438857D01*
X201874286Y-145534095D01*
X201826667Y-145629333D01*
X201779048Y-145676952D01*
X201683810Y-145724571D01*
X201350476Y-145724571D01*
X202874286Y-146248381D02*
X202302857Y-146248381D01*
X202588571Y-146248381D02*
X202588571Y-145248381D01*
X202493333Y-145391238D01*
X202398095Y-145486476D01*
X202302857Y-145534095D01*
X160345714Y-146200762D02*
X160488571Y-146248381D01*
X160726667Y-146248381D01*
X160821905Y-146200762D01*
X160869524Y-146153143D01*
X160917143Y-146057905D01*
X160917143Y-145962667D01*
X160869524Y-145867429D01*
X160821905Y-145819810D01*
X160726667Y-145772190D01*
X160536190Y-145724571D01*
X160440952Y-145676952D01*
X160393333Y-145629333D01*
X160345714Y-145534095D01*
X160345714Y-145438857D01*
X160393333Y-145343619D01*
X160440952Y-145296000D01*
X160536190Y-145248381D01*
X160774286Y-145248381D01*
X160917143Y-145296000D01*
X161250476Y-145248381D02*
X161488571Y-146248381D01*
X161679048Y-145534095D01*
X161869524Y-146248381D01*
X162107619Y-145248381D01*
X162250476Y-146343619D02*
X163012381Y-146343619D01*
X163821905Y-146153143D02*
X163774286Y-146200762D01*
X163631429Y-146248381D01*
X163536191Y-146248381D01*
X163393333Y-146200762D01*
X163298095Y-146105524D01*
X163250476Y-146010286D01*
X163202857Y-145819810D01*
X163202857Y-145676952D01*
X163250476Y-145486476D01*
X163298095Y-145391238D01*
X163393333Y-145296000D01*
X163536191Y-145248381D01*
X163631429Y-145248381D01*
X163774286Y-145296000D01*
X163821905Y-145343619D01*
X164774286Y-146248381D02*
X164202857Y-146248381D01*
X164488571Y-146248381D02*
X164488571Y-145248381D01*
X164393333Y-145391238D01*
X164298095Y-145486476D01*
X164202857Y-145534095D01*
X329573809Y-108100762D02*
X329716666Y-108148381D01*
X329954762Y-108148381D01*
X330050000Y-108100762D01*
X330097619Y-108053143D01*
X330145238Y-107957905D01*
X330145238Y-107862667D01*
X330097619Y-107767429D01*
X330050000Y-107719810D01*
X329954762Y-107672190D01*
X329764285Y-107624571D01*
X329669047Y-107576952D01*
X329621428Y-107529333D01*
X329573809Y-107434095D01*
X329573809Y-107338857D01*
X329621428Y-107243619D01*
X329669047Y-107196000D01*
X329764285Y-107148381D01*
X330002381Y-107148381D01*
X330145238Y-107196000D01*
X330478571Y-107148381D02*
X330716666Y-108148381D01*
X330907143Y-107434095D01*
X331097619Y-108148381D01*
X331335714Y-107148381D01*
X331478571Y-108243619D02*
X332240476Y-108243619D01*
X333050000Y-108053143D02*
X333002381Y-108100762D01*
X332859524Y-108148381D01*
X332764286Y-108148381D01*
X332621428Y-108100762D01*
X332526190Y-108005524D01*
X332478571Y-107910286D01*
X332430952Y-107719810D01*
X332430952Y-107576952D01*
X332478571Y-107386476D01*
X332526190Y-107291238D01*
X332621428Y-107196000D01*
X332764286Y-107148381D01*
X332859524Y-107148381D01*
X333002381Y-107196000D01*
X333050000Y-107243619D01*
X333954762Y-108148381D02*
X333478571Y-108148381D01*
X333478571Y-107148381D01*
X334478571Y-107148381D02*
X334669048Y-107148381D01*
X334764286Y-107196000D01*
X334859524Y-107291238D01*
X334907143Y-107481714D01*
X334907143Y-107815048D01*
X334859524Y-108005524D01*
X334764286Y-108100762D01*
X334669048Y-108148381D01*
X334478571Y-108148381D01*
X334383333Y-108100762D01*
X334288095Y-108005524D01*
X334240476Y-107815048D01*
X334240476Y-107481714D01*
X334288095Y-107291238D01*
X334383333Y-107196000D01*
X334478571Y-107148381D01*
X335288095Y-108100762D02*
X335430952Y-108148381D01*
X335669048Y-108148381D01*
X335764286Y-108100762D01*
X335811905Y-108053143D01*
X335859524Y-107957905D01*
X335859524Y-107862667D01*
X335811905Y-107767429D01*
X335764286Y-107719810D01*
X335669048Y-107672190D01*
X335478571Y-107624571D01*
X335383333Y-107576952D01*
X335335714Y-107529333D01*
X335288095Y-107434095D01*
X335288095Y-107338857D01*
X335335714Y-107243619D01*
X335383333Y-107196000D01*
X335478571Y-107148381D01*
X335716667Y-107148381D01*
X335859524Y-107196000D01*
X336288095Y-107624571D02*
X336621429Y-107624571D01*
X336764286Y-108148381D02*
X336288095Y-108148381D01*
X336288095Y-107148381D01*
X336764286Y-107148381D01*
X337145238Y-108100762D02*
X337288095Y-108148381D01*
X337526191Y-108148381D01*
X337621429Y-108100762D01*
X337669048Y-108053143D01*
X337716667Y-107957905D01*
X337716667Y-107862667D01*
X337669048Y-107767429D01*
X337621429Y-107719810D01*
X337526191Y-107672190D01*
X337335714Y-107624571D01*
X337240476Y-107576952D01*
X337192857Y-107529333D01*
X337145238Y-107434095D01*
X337145238Y-107338857D01*
X337192857Y-107243619D01*
X337240476Y-107196000D01*
X337335714Y-107148381D01*
X337573810Y-107148381D01*
X337716667Y-107196000D01*
X338811905Y-108243619D02*
X338716667Y-108196000D01*
X338621429Y-108100762D01*
X338478572Y-107957905D01*
X338383333Y-107910286D01*
X338288095Y-107910286D01*
X338335714Y-108148381D02*
X338240476Y-108100762D01*
X338145238Y-108005524D01*
X338097619Y-107815048D01*
X338097619Y-107481714D01*
X338145238Y-107291238D01*
X338240476Y-107196000D01*
X338335714Y-107148381D01*
X338526191Y-107148381D01*
X338621429Y-107196000D01*
X338716667Y-107291238D01*
X338764286Y-107481714D01*
X338764286Y-107815048D01*
X338716667Y-108005524D01*
X338621429Y-108100762D01*
X338526191Y-108148381D01*
X338335714Y-108148381D01*
X339192857Y-107148381D02*
X339192857Y-107957905D01*
X339240476Y-108053143D01*
X339288095Y-108100762D01*
X339383333Y-108148381D01*
X339573810Y-108148381D01*
X339669048Y-108100762D01*
X339716667Y-108053143D01*
X339764286Y-107957905D01*
X339764286Y-107148381D01*
X340192857Y-107862667D02*
X340669048Y-107862667D01*
X340097619Y-108148381D02*
X340430952Y-107148381D01*
X340764286Y-108148381D01*
X341669048Y-108148381D02*
X341335714Y-107672190D01*
X341097619Y-108148381D02*
X341097619Y-107148381D01*
X341478572Y-107148381D01*
X341573810Y-107196000D01*
X341621429Y-107243619D01*
X341669048Y-107338857D01*
X341669048Y-107481714D01*
X341621429Y-107576952D01*
X341573810Y-107624571D01*
X341478572Y-107672190D01*
X341097619Y-107672190D01*
X342097619Y-107624571D02*
X342430953Y-107624571D01*
X342573810Y-108148381D02*
X342097619Y-108148381D01*
X342097619Y-107148381D01*
X342573810Y-107148381D01*
X343526191Y-108148381D02*
X342954762Y-108148381D01*
X343240476Y-108148381D02*
X343240476Y-107148381D01*
X343145238Y-107291238D01*
X343050000Y-107386476D01*
X342954762Y-107434095D01*
X300609524Y-127150762D02*
X300752381Y-127198381D01*
X300990477Y-127198381D01*
X301085715Y-127150762D01*
X301133334Y-127103143D01*
X301180953Y-127007905D01*
X301180953Y-126912667D01*
X301133334Y-126817429D01*
X301085715Y-126769810D01*
X300990477Y-126722190D01*
X300800000Y-126674571D01*
X300704762Y-126626952D01*
X300657143Y-126579333D01*
X300609524Y-126484095D01*
X300609524Y-126388857D01*
X300657143Y-126293619D01*
X300704762Y-126246000D01*
X300800000Y-126198381D01*
X301038096Y-126198381D01*
X301180953Y-126246000D01*
X301514286Y-126198381D02*
X301752381Y-127198381D01*
X301942858Y-126484095D01*
X302133334Y-127198381D01*
X302371429Y-126198381D01*
X302514286Y-127293619D02*
X303276191Y-127293619D01*
X304085715Y-127103143D02*
X304038096Y-127150762D01*
X303895239Y-127198381D01*
X303800001Y-127198381D01*
X303657143Y-127150762D01*
X303561905Y-127055524D01*
X303514286Y-126960286D01*
X303466667Y-126769810D01*
X303466667Y-126626952D01*
X303514286Y-126436476D01*
X303561905Y-126341238D01*
X303657143Y-126246000D01*
X303800001Y-126198381D01*
X303895239Y-126198381D01*
X304038096Y-126246000D01*
X304085715Y-126293619D01*
X304704762Y-126198381D02*
X304895239Y-126198381D01*
X304990477Y-126246000D01*
X305085715Y-126341238D01*
X305133334Y-126531714D01*
X305133334Y-126865048D01*
X305085715Y-127055524D01*
X304990477Y-127150762D01*
X304895239Y-127198381D01*
X304704762Y-127198381D01*
X304609524Y-127150762D01*
X304514286Y-127055524D01*
X304466667Y-126865048D01*
X304466667Y-126531714D01*
X304514286Y-126341238D01*
X304609524Y-126246000D01*
X304704762Y-126198381D01*
X306038096Y-127198381D02*
X305561905Y-127198381D01*
X305561905Y-126198381D01*
X306561905Y-126198381D02*
X306752382Y-126198381D01*
X306847620Y-126246000D01*
X306942858Y-126341238D01*
X306990477Y-126531714D01*
X306990477Y-126865048D01*
X306942858Y-127055524D01*
X306847620Y-127150762D01*
X306752382Y-127198381D01*
X306561905Y-127198381D01*
X306466667Y-127150762D01*
X306371429Y-127055524D01*
X306323810Y-126865048D01*
X306323810Y-126531714D01*
X306371429Y-126341238D01*
X306466667Y-126246000D01*
X306561905Y-126198381D01*
X307419048Y-127198381D02*
X307419048Y-126198381D01*
X307990477Y-127198381D01*
X307990477Y-126198381D01*
X308990477Y-127198381D02*
X308419048Y-127198381D01*
X308704762Y-127198381D02*
X308704762Y-126198381D01*
X308609524Y-126341238D01*
X308514286Y-126436476D01*
X308419048Y-126484095D01*
X253500476Y-146200762D02*
X253643333Y-146248381D01*
X253881429Y-146248381D01*
X253976667Y-146200762D01*
X254024286Y-146153143D01*
X254071905Y-146057905D01*
X254071905Y-145962667D01*
X254024286Y-145867429D01*
X253976667Y-145819810D01*
X253881429Y-145772190D01*
X253690952Y-145724571D01*
X253595714Y-145676952D01*
X253548095Y-145629333D01*
X253500476Y-145534095D01*
X253500476Y-145438857D01*
X253548095Y-145343619D01*
X253595714Y-145296000D01*
X253690952Y-145248381D01*
X253929048Y-145248381D01*
X254071905Y-145296000D01*
X254405238Y-145248381D02*
X254643333Y-146248381D01*
X254833810Y-145534095D01*
X255024286Y-146248381D01*
X255262381Y-145248381D01*
X255405238Y-146343619D02*
X256167143Y-146343619D01*
X256976667Y-146153143D02*
X256929048Y-146200762D01*
X256786191Y-146248381D01*
X256690953Y-146248381D01*
X256548095Y-146200762D01*
X256452857Y-146105524D01*
X256405238Y-146010286D01*
X256357619Y-145819810D01*
X256357619Y-145676952D01*
X256405238Y-145486476D01*
X256452857Y-145391238D01*
X256548095Y-145296000D01*
X256690953Y-145248381D01*
X256786191Y-145248381D01*
X256929048Y-145296000D01*
X256976667Y-145343619D01*
X257595714Y-145248381D02*
X257786191Y-145248381D01*
X257881429Y-145296000D01*
X257976667Y-145391238D01*
X258024286Y-145581714D01*
X258024286Y-145915048D01*
X257976667Y-146105524D01*
X257881429Y-146200762D01*
X257786191Y-146248381D01*
X257595714Y-146248381D01*
X257500476Y-146200762D01*
X257405238Y-146105524D01*
X257357619Y-145915048D01*
X257357619Y-145581714D01*
X257405238Y-145391238D01*
X257500476Y-145296000D01*
X257595714Y-145248381D01*
X258452857Y-146248381D02*
X258452857Y-145248381D01*
X258786191Y-145962667D01*
X259119524Y-145248381D01*
X259119524Y-146248381D01*
X259595714Y-146248381D02*
X259595714Y-145248381D01*
X259929048Y-145962667D01*
X260262381Y-145248381D01*
X260262381Y-146248381D01*
X260690952Y-145962667D02*
X261167143Y-145962667D01*
X260595714Y-146248381D02*
X260929047Y-145248381D01*
X261262381Y-146248381D01*
X262119524Y-146248381D02*
X261548095Y-146248381D01*
X261833809Y-146248381D02*
X261833809Y-145248381D01*
X261738571Y-145391238D01*
X261643333Y-145486476D01*
X261548095Y-145534095D01*
X150185714Y-127150762D02*
X150328571Y-127198381D01*
X150566667Y-127198381D01*
X150661905Y-127150762D01*
X150709524Y-127103143D01*
X150757143Y-127007905D01*
X150757143Y-126912667D01*
X150709524Y-126817429D01*
X150661905Y-126769810D01*
X150566667Y-126722190D01*
X150376190Y-126674571D01*
X150280952Y-126626952D01*
X150233333Y-126579333D01*
X150185714Y-126484095D01*
X150185714Y-126388857D01*
X150233333Y-126293619D01*
X150280952Y-126246000D01*
X150376190Y-126198381D01*
X150614286Y-126198381D01*
X150757143Y-126246000D01*
X151090476Y-126198381D02*
X151328571Y-127198381D01*
X151519048Y-126484095D01*
X151709524Y-127198381D01*
X151947619Y-126198381D01*
X152090476Y-127293619D02*
X152852381Y-127293619D01*
X153090476Y-127198381D02*
X153090476Y-126198381D01*
X153328571Y-126198381D01*
X153471429Y-126246000D01*
X153566667Y-126341238D01*
X153614286Y-126436476D01*
X153661905Y-126626952D01*
X153661905Y-126769810D01*
X153614286Y-126960286D01*
X153566667Y-127055524D01*
X153471429Y-127150762D01*
X153328571Y-127198381D01*
X153090476Y-127198381D01*
X154614286Y-127198381D02*
X154042857Y-127198381D01*
X154328571Y-127198381D02*
X154328571Y-126198381D01*
X154233333Y-126341238D01*
X154138095Y-126436476D01*
X154042857Y-126484095D01*
X304038571Y-89050762D02*
X304181428Y-89098381D01*
X304419524Y-89098381D01*
X304514762Y-89050762D01*
X304562381Y-89003143D01*
X304610000Y-88907905D01*
X304610000Y-88812667D01*
X304562381Y-88717429D01*
X304514762Y-88669810D01*
X304419524Y-88622190D01*
X304229047Y-88574571D01*
X304133809Y-88526952D01*
X304086190Y-88479333D01*
X304038571Y-88384095D01*
X304038571Y-88288857D01*
X304086190Y-88193619D01*
X304133809Y-88146000D01*
X304229047Y-88098381D01*
X304467143Y-88098381D01*
X304610000Y-88146000D01*
X304943333Y-88098381D02*
X305181428Y-89098381D01*
X305371905Y-88384095D01*
X305562381Y-89098381D01*
X305800476Y-88098381D01*
X305943333Y-89193619D02*
X306705238Y-89193619D01*
X306943333Y-89098381D02*
X306943333Y-88098381D01*
X307181428Y-88098381D01*
X307324286Y-88146000D01*
X307419524Y-88241238D01*
X307467143Y-88336476D01*
X307514762Y-88526952D01*
X307514762Y-88669810D01*
X307467143Y-88860286D01*
X307419524Y-88955524D01*
X307324286Y-89050762D01*
X307181428Y-89098381D01*
X306943333Y-89098381D01*
X307943333Y-88574571D02*
X308276667Y-88574571D01*
X308419524Y-89098381D02*
X307943333Y-89098381D01*
X307943333Y-88098381D01*
X308419524Y-88098381D01*
X309371905Y-88146000D02*
X309276667Y-88098381D01*
X309133810Y-88098381D01*
X308990952Y-88146000D01*
X308895714Y-88241238D01*
X308848095Y-88336476D01*
X308800476Y-88526952D01*
X308800476Y-88669810D01*
X308848095Y-88860286D01*
X308895714Y-88955524D01*
X308990952Y-89050762D01*
X309133810Y-89098381D01*
X309229048Y-89098381D01*
X309371905Y-89050762D01*
X309419524Y-89003143D01*
X309419524Y-88669810D01*
X309229048Y-88669810D01*
X310419524Y-89098381D02*
X310086190Y-88622190D01*
X309848095Y-89098381D02*
X309848095Y-88098381D01*
X310229048Y-88098381D01*
X310324286Y-88146000D01*
X310371905Y-88193619D01*
X310419524Y-88288857D01*
X310419524Y-88431714D01*
X310371905Y-88526952D01*
X310324286Y-88574571D01*
X310229048Y-88622190D01*
X309848095Y-88622190D01*
X310848095Y-88574571D02*
X311181429Y-88574571D01*
X311324286Y-89098381D02*
X310848095Y-89098381D01*
X310848095Y-88098381D01*
X311324286Y-88098381D01*
X311752857Y-88574571D02*
X312086191Y-88574571D01*
X312229048Y-89098381D02*
X311752857Y-89098381D01*
X311752857Y-88098381D01*
X312229048Y-88098381D01*
X313181429Y-89098381D02*
X312610000Y-89098381D01*
X312895714Y-89098381D02*
X312895714Y-88098381D01*
X312800476Y-88241238D01*
X312705238Y-88336476D01*
X312610000Y-88384095D01*
X294616667Y-70000762D02*
X294759524Y-70048381D01*
X294997620Y-70048381D01*
X295092858Y-70000762D01*
X295140477Y-69953143D01*
X295188096Y-69857905D01*
X295188096Y-69762667D01*
X295140477Y-69667429D01*
X295092858Y-69619810D01*
X294997620Y-69572190D01*
X294807143Y-69524571D01*
X294711905Y-69476952D01*
X294664286Y-69429333D01*
X294616667Y-69334095D01*
X294616667Y-69238857D01*
X294664286Y-69143619D01*
X294711905Y-69096000D01*
X294807143Y-69048381D01*
X295045239Y-69048381D01*
X295188096Y-69096000D01*
X295521429Y-69048381D02*
X295759524Y-70048381D01*
X295950001Y-69334095D01*
X296140477Y-70048381D01*
X296378572Y-69048381D01*
X296521429Y-70143619D02*
X297283334Y-70143619D01*
X297521429Y-70048381D02*
X297521429Y-69048381D01*
X297759524Y-69048381D01*
X297902382Y-69096000D01*
X297997620Y-69191238D01*
X298045239Y-69286476D01*
X298092858Y-69476952D01*
X298092858Y-69619810D01*
X298045239Y-69810286D01*
X297997620Y-69905524D01*
X297902382Y-70000762D01*
X297759524Y-70048381D01*
X297521429Y-70048381D01*
X298711905Y-69048381D02*
X298902382Y-69048381D01*
X298997620Y-69096000D01*
X299092858Y-69191238D01*
X299140477Y-69381714D01*
X299140477Y-69715048D01*
X299092858Y-69905524D01*
X298997620Y-70000762D01*
X298902382Y-70048381D01*
X298711905Y-70048381D01*
X298616667Y-70000762D01*
X298521429Y-69905524D01*
X298473810Y-69715048D01*
X298473810Y-69381714D01*
X298521429Y-69191238D01*
X298616667Y-69096000D01*
X298711905Y-69048381D01*
X299473810Y-69048381D02*
X299711905Y-70048381D01*
X299902382Y-69334095D01*
X300092858Y-70048381D01*
X300330953Y-69048381D01*
X300711905Y-70048381D02*
X300711905Y-69048381D01*
X301283334Y-70048381D01*
X301283334Y-69048381D01*
X302283334Y-70048381D02*
X301711905Y-70048381D01*
X301997619Y-70048381D02*
X301997619Y-69048381D01*
X301902381Y-69191238D01*
X301807143Y-69286476D01*
X301711905Y-69334095D01*
X143883333Y-108100762D02*
X144026190Y-108148381D01*
X144264286Y-108148381D01*
X144359524Y-108100762D01*
X144407143Y-108053143D01*
X144454762Y-107957905D01*
X144454762Y-107862667D01*
X144407143Y-107767429D01*
X144359524Y-107719810D01*
X144264286Y-107672190D01*
X144073809Y-107624571D01*
X143978571Y-107576952D01*
X143930952Y-107529333D01*
X143883333Y-107434095D01*
X143883333Y-107338857D01*
X143930952Y-107243619D01*
X143978571Y-107196000D01*
X144073809Y-107148381D01*
X144311905Y-107148381D01*
X144454762Y-107196000D01*
X144788095Y-107148381D02*
X145026190Y-108148381D01*
X145216667Y-107434095D01*
X145407143Y-108148381D01*
X145645238Y-107148381D01*
X145788095Y-108243619D02*
X146550000Y-108243619D01*
X146788095Y-107624571D02*
X147121429Y-107624571D01*
X147264286Y-108148381D02*
X146788095Y-108148381D01*
X146788095Y-107148381D01*
X147264286Y-107148381D01*
X148216667Y-108148381D02*
X147645238Y-108148381D01*
X147930952Y-108148381D02*
X147930952Y-107148381D01*
X147835714Y-107291238D01*
X147740476Y-107386476D01*
X147645238Y-107434095D01*
X169307143Y-127150762D02*
X169450000Y-127198381D01*
X169688096Y-127198381D01*
X169783334Y-127150762D01*
X169830953Y-127103143D01*
X169878572Y-127007905D01*
X169878572Y-126912667D01*
X169830953Y-126817429D01*
X169783334Y-126769810D01*
X169688096Y-126722190D01*
X169497619Y-126674571D01*
X169402381Y-126626952D01*
X169354762Y-126579333D01*
X169307143Y-126484095D01*
X169307143Y-126388857D01*
X169354762Y-126293619D01*
X169402381Y-126246000D01*
X169497619Y-126198381D01*
X169735715Y-126198381D01*
X169878572Y-126246000D01*
X170211905Y-126198381D02*
X170450000Y-127198381D01*
X170640477Y-126484095D01*
X170830953Y-127198381D01*
X171069048Y-126198381D01*
X171211905Y-127293619D02*
X171973810Y-127293619D01*
X172545239Y-126674571D02*
X172211905Y-126674571D01*
X172211905Y-127198381D02*
X172211905Y-126198381D01*
X172688096Y-126198381D01*
X173592858Y-127198381D02*
X173021429Y-127198381D01*
X173307143Y-127198381D02*
X173307143Y-126198381D01*
X173211905Y-126341238D01*
X173116667Y-126436476D01*
X173021429Y-126484095D01*
X288433809Y-146200762D02*
X288576666Y-146248381D01*
X288814762Y-146248381D01*
X288910000Y-146200762D01*
X288957619Y-146153143D01*
X289005238Y-146057905D01*
X289005238Y-145962667D01*
X288957619Y-145867429D01*
X288910000Y-145819810D01*
X288814762Y-145772190D01*
X288624285Y-145724571D01*
X288529047Y-145676952D01*
X288481428Y-145629333D01*
X288433809Y-145534095D01*
X288433809Y-145438857D01*
X288481428Y-145343619D01*
X288529047Y-145296000D01*
X288624285Y-145248381D01*
X288862381Y-145248381D01*
X289005238Y-145296000D01*
X289338571Y-145248381D02*
X289576666Y-146248381D01*
X289767143Y-145534095D01*
X289957619Y-146248381D01*
X290195714Y-145248381D01*
X290338571Y-146343619D02*
X291100476Y-146343619D01*
X291671905Y-145724571D02*
X291338571Y-145724571D01*
X291338571Y-146248381D02*
X291338571Y-145248381D01*
X291814762Y-145248381D01*
X292386190Y-145248381D02*
X292576667Y-145248381D01*
X292671905Y-145296000D01*
X292767143Y-145391238D01*
X292814762Y-145581714D01*
X292814762Y-145915048D01*
X292767143Y-146105524D01*
X292671905Y-146200762D01*
X292576667Y-146248381D01*
X292386190Y-146248381D01*
X292290952Y-146200762D01*
X292195714Y-146105524D01*
X292148095Y-145915048D01*
X292148095Y-145581714D01*
X292195714Y-145391238D01*
X292290952Y-145296000D01*
X292386190Y-145248381D01*
X293814762Y-146248381D02*
X293481428Y-145772190D01*
X293243333Y-146248381D02*
X293243333Y-145248381D01*
X293624286Y-145248381D01*
X293719524Y-145296000D01*
X293767143Y-145343619D01*
X293814762Y-145438857D01*
X293814762Y-145581714D01*
X293767143Y-145676952D01*
X293719524Y-145724571D01*
X293624286Y-145772190D01*
X293243333Y-145772190D01*
X294148095Y-145248381D02*
X294386190Y-146248381D01*
X294576667Y-145534095D01*
X294767143Y-146248381D01*
X295005238Y-145248381D01*
X295338571Y-145962667D02*
X295814762Y-145962667D01*
X295243333Y-146248381D02*
X295576666Y-145248381D01*
X295910000Y-146248381D01*
X296814762Y-146248381D02*
X296481428Y-145772190D01*
X296243333Y-146248381D02*
X296243333Y-145248381D01*
X296624286Y-145248381D01*
X296719524Y-145296000D01*
X296767143Y-145343619D01*
X296814762Y-145438857D01*
X296814762Y-145581714D01*
X296767143Y-145676952D01*
X296719524Y-145724571D01*
X296624286Y-145772190D01*
X296243333Y-145772190D01*
X297243333Y-146248381D02*
X297243333Y-145248381D01*
X297481428Y-145248381D01*
X297624286Y-145296000D01*
X297719524Y-145391238D01*
X297767143Y-145486476D01*
X297814762Y-145676952D01*
X297814762Y-145819810D01*
X297767143Y-146010286D01*
X297719524Y-146105524D01*
X297624286Y-146200762D01*
X297481428Y-146248381D01*
X297243333Y-146248381D01*
X298195714Y-146200762D02*
X298338571Y-146248381D01*
X298576667Y-146248381D01*
X298671905Y-146200762D01*
X298719524Y-146153143D01*
X298767143Y-146057905D01*
X298767143Y-145962667D01*
X298719524Y-145867429D01*
X298671905Y-145819810D01*
X298576667Y-145772190D01*
X298386190Y-145724571D01*
X298290952Y-145676952D01*
X298243333Y-145629333D01*
X298195714Y-145534095D01*
X298195714Y-145438857D01*
X298243333Y-145343619D01*
X298290952Y-145296000D01*
X298386190Y-145248381D01*
X298624286Y-145248381D01*
X298767143Y-145296000D01*
X299671905Y-146248381D02*
X299195714Y-146248381D01*
X299195714Y-145248381D01*
X299957619Y-145962667D02*
X300433810Y-145962667D01*
X299862381Y-146248381D02*
X300195714Y-145248381D01*
X300529048Y-146248381D01*
X300814762Y-146200762D02*
X300957619Y-146248381D01*
X301195715Y-146248381D01*
X301290953Y-146200762D01*
X301338572Y-146153143D01*
X301386191Y-146057905D01*
X301386191Y-145962667D01*
X301338572Y-145867429D01*
X301290953Y-145819810D01*
X301195715Y-145772190D01*
X301005238Y-145724571D01*
X300910000Y-145676952D01*
X300862381Y-145629333D01*
X300814762Y-145534095D01*
X300814762Y-145438857D01*
X300862381Y-145343619D01*
X300910000Y-145296000D01*
X301005238Y-145248381D01*
X301243334Y-145248381D01*
X301386191Y-145296000D01*
X301814762Y-146248381D02*
X301814762Y-145248381D01*
X301814762Y-145724571D02*
X302386191Y-145724571D01*
X302386191Y-146248381D02*
X302386191Y-145248381D01*
X303386191Y-146248381D02*
X302814762Y-146248381D01*
X303100476Y-146248381D02*
X303100476Y-145248381D01*
X303005238Y-145391238D01*
X302910000Y-145486476D01*
X302814762Y-145534095D01*
X188285714Y-127150762D02*
X188428571Y-127198381D01*
X188666667Y-127198381D01*
X188761905Y-127150762D01*
X188809524Y-127103143D01*
X188857143Y-127007905D01*
X188857143Y-126912667D01*
X188809524Y-126817429D01*
X188761905Y-126769810D01*
X188666667Y-126722190D01*
X188476190Y-126674571D01*
X188380952Y-126626952D01*
X188333333Y-126579333D01*
X188285714Y-126484095D01*
X188285714Y-126388857D01*
X188333333Y-126293619D01*
X188380952Y-126246000D01*
X188476190Y-126198381D01*
X188714286Y-126198381D01*
X188857143Y-126246000D01*
X189190476Y-126198381D02*
X189428571Y-127198381D01*
X189619048Y-126484095D01*
X189809524Y-127198381D01*
X190047619Y-126198381D01*
X190190476Y-127293619D02*
X190952381Y-127293619D01*
X191714286Y-126246000D02*
X191619048Y-126198381D01*
X191476191Y-126198381D01*
X191333333Y-126246000D01*
X191238095Y-126341238D01*
X191190476Y-126436476D01*
X191142857Y-126626952D01*
X191142857Y-126769810D01*
X191190476Y-126960286D01*
X191238095Y-127055524D01*
X191333333Y-127150762D01*
X191476191Y-127198381D01*
X191571429Y-127198381D01*
X191714286Y-127150762D01*
X191761905Y-127103143D01*
X191761905Y-126769810D01*
X191571429Y-126769810D01*
X192714286Y-127198381D02*
X192142857Y-127198381D01*
X192428571Y-127198381D02*
X192428571Y-126198381D01*
X192333333Y-126341238D01*
X192238095Y-126436476D01*
X192142857Y-126484095D01*
X207311905Y-127150762D02*
X207454762Y-127198381D01*
X207692858Y-127198381D01*
X207788096Y-127150762D01*
X207835715Y-127103143D01*
X207883334Y-127007905D01*
X207883334Y-126912667D01*
X207835715Y-126817429D01*
X207788096Y-126769810D01*
X207692858Y-126722190D01*
X207502381Y-126674571D01*
X207407143Y-126626952D01*
X207359524Y-126579333D01*
X207311905Y-126484095D01*
X207311905Y-126388857D01*
X207359524Y-126293619D01*
X207407143Y-126246000D01*
X207502381Y-126198381D01*
X207740477Y-126198381D01*
X207883334Y-126246000D01*
X208216667Y-126198381D02*
X208454762Y-127198381D01*
X208645239Y-126484095D01*
X208835715Y-127198381D01*
X209073810Y-126198381D01*
X209216667Y-127293619D02*
X209978572Y-127293619D01*
X210216667Y-127198381D02*
X210216667Y-126198381D01*
X210216667Y-126674571D02*
X210788096Y-126674571D01*
X210788096Y-127198381D02*
X210788096Y-126198381D01*
X211788096Y-127198381D02*
X211216667Y-127198381D01*
X211502381Y-127198381D02*
X211502381Y-126198381D01*
X211407143Y-126341238D01*
X211311905Y-126436476D01*
X211216667Y-126484095D01*
X284893333Y-89050762D02*
X285036190Y-89098381D01*
X285274286Y-89098381D01*
X285369524Y-89050762D01*
X285417143Y-89003143D01*
X285464762Y-88907905D01*
X285464762Y-88812667D01*
X285417143Y-88717429D01*
X285369524Y-88669810D01*
X285274286Y-88622190D01*
X285083809Y-88574571D01*
X284988571Y-88526952D01*
X284940952Y-88479333D01*
X284893333Y-88384095D01*
X284893333Y-88288857D01*
X284940952Y-88193619D01*
X284988571Y-88146000D01*
X285083809Y-88098381D01*
X285321905Y-88098381D01*
X285464762Y-88146000D01*
X285798095Y-88098381D02*
X286036190Y-89098381D01*
X286226667Y-88384095D01*
X286417143Y-89098381D01*
X286655238Y-88098381D01*
X286798095Y-89193619D02*
X287560000Y-89193619D01*
X287798095Y-89098381D02*
X287798095Y-88098381D01*
X287798095Y-88574571D02*
X288369524Y-88574571D01*
X288369524Y-89098381D02*
X288369524Y-88098381D01*
X289036190Y-88622190D02*
X289036190Y-89098381D01*
X288702857Y-88098381D02*
X289036190Y-88622190D01*
X289369524Y-88098381D01*
X289702857Y-89098381D02*
X289702857Y-88098381D01*
X290083810Y-88098381D01*
X290179048Y-88146000D01*
X290226667Y-88193619D01*
X290274286Y-88288857D01*
X290274286Y-88431714D01*
X290226667Y-88526952D01*
X290179048Y-88574571D01*
X290083810Y-88622190D01*
X289702857Y-88622190D01*
X290702857Y-89098381D02*
X290702857Y-88098381D01*
X290702857Y-88574571D02*
X291274286Y-88574571D01*
X291274286Y-89098381D02*
X291274286Y-88098381D01*
X291750476Y-88574571D02*
X292083810Y-88574571D01*
X292226667Y-89098381D02*
X291750476Y-89098381D01*
X291750476Y-88098381D01*
X292226667Y-88098381D01*
X292655238Y-89098381D02*
X292655238Y-88098381D01*
X293226667Y-89098381D01*
X293226667Y-88098381D01*
X294226667Y-89098381D02*
X293655238Y-89098381D01*
X293940952Y-89098381D02*
X293940952Y-88098381D01*
X293845714Y-88241238D01*
X293750476Y-88336476D01*
X293655238Y-88384095D01*
X239347619Y-108100762D02*
X239490476Y-108148381D01*
X239728572Y-108148381D01*
X239823810Y-108100762D01*
X239871429Y-108053143D01*
X239919048Y-107957905D01*
X239919048Y-107862667D01*
X239871429Y-107767429D01*
X239823810Y-107719810D01*
X239728572Y-107672190D01*
X239538095Y-107624571D01*
X239442857Y-107576952D01*
X239395238Y-107529333D01*
X239347619Y-107434095D01*
X239347619Y-107338857D01*
X239395238Y-107243619D01*
X239442857Y-107196000D01*
X239538095Y-107148381D01*
X239776191Y-107148381D01*
X239919048Y-107196000D01*
X240252381Y-107148381D02*
X240490476Y-108148381D01*
X240680953Y-107434095D01*
X240871429Y-108148381D01*
X241109524Y-107148381D01*
X241252381Y-108243619D02*
X242014286Y-108243619D01*
X242252381Y-108148381D02*
X242252381Y-107148381D01*
X243252381Y-108148381D02*
X242680952Y-108148381D01*
X242966666Y-108148381D02*
X242966666Y-107148381D01*
X242871428Y-107291238D01*
X242776190Y-107386476D01*
X242680952Y-107434095D01*
X226504762Y-127150762D02*
X226647619Y-127198381D01*
X226885715Y-127198381D01*
X226980953Y-127150762D01*
X227028572Y-127103143D01*
X227076191Y-127007905D01*
X227076191Y-126912667D01*
X227028572Y-126817429D01*
X226980953Y-126769810D01*
X226885715Y-126722190D01*
X226695238Y-126674571D01*
X226600000Y-126626952D01*
X226552381Y-126579333D01*
X226504762Y-126484095D01*
X226504762Y-126388857D01*
X226552381Y-126293619D01*
X226600000Y-126246000D01*
X226695238Y-126198381D01*
X226933334Y-126198381D01*
X227076191Y-126246000D01*
X227409524Y-126198381D02*
X227647619Y-127198381D01*
X227838096Y-126484095D01*
X228028572Y-127198381D01*
X228266667Y-126198381D01*
X228409524Y-127293619D02*
X229171429Y-127293619D01*
X229695239Y-126198381D02*
X229695239Y-126912667D01*
X229647619Y-127055524D01*
X229552381Y-127150762D01*
X229409524Y-127198381D01*
X229314286Y-127198381D01*
X230695239Y-127198381D02*
X230123810Y-127198381D01*
X230409524Y-127198381D02*
X230409524Y-126198381D01*
X230314286Y-126341238D01*
X230219048Y-126436476D01*
X230123810Y-126484095D01*
X245435714Y-127150762D02*
X245578571Y-127198381D01*
X245816667Y-127198381D01*
X245911905Y-127150762D01*
X245959524Y-127103143D01*
X246007143Y-127007905D01*
X246007143Y-126912667D01*
X245959524Y-126817429D01*
X245911905Y-126769810D01*
X245816667Y-126722190D01*
X245626190Y-126674571D01*
X245530952Y-126626952D01*
X245483333Y-126579333D01*
X245435714Y-126484095D01*
X245435714Y-126388857D01*
X245483333Y-126293619D01*
X245530952Y-126246000D01*
X245626190Y-126198381D01*
X245864286Y-126198381D01*
X246007143Y-126246000D01*
X246340476Y-126198381D02*
X246578571Y-127198381D01*
X246769048Y-126484095D01*
X246959524Y-127198381D01*
X247197619Y-126198381D01*
X247340476Y-127293619D02*
X248102381Y-127293619D01*
X248340476Y-127198381D02*
X248340476Y-126198381D01*
X248911905Y-127198381D02*
X248483333Y-126626952D01*
X248911905Y-126198381D02*
X248340476Y-126769810D01*
X249864286Y-127198381D02*
X249292857Y-127198381D01*
X249578571Y-127198381D02*
X249578571Y-126198381D01*
X249483333Y-126341238D01*
X249388095Y-126436476D01*
X249292857Y-126484095D01*
X264580952Y-127150762D02*
X264723809Y-127198381D01*
X264961905Y-127198381D01*
X265057143Y-127150762D01*
X265104762Y-127103143D01*
X265152381Y-127007905D01*
X265152381Y-126912667D01*
X265104762Y-126817429D01*
X265057143Y-126769810D01*
X264961905Y-126722190D01*
X264771428Y-126674571D01*
X264676190Y-126626952D01*
X264628571Y-126579333D01*
X264580952Y-126484095D01*
X264580952Y-126388857D01*
X264628571Y-126293619D01*
X264676190Y-126246000D01*
X264771428Y-126198381D01*
X265009524Y-126198381D01*
X265152381Y-126246000D01*
X265485714Y-126198381D02*
X265723809Y-127198381D01*
X265914286Y-126484095D01*
X266104762Y-127198381D01*
X266342857Y-126198381D01*
X266485714Y-127293619D02*
X267247619Y-127293619D01*
X267961905Y-127198381D02*
X267485714Y-127198381D01*
X267485714Y-126198381D01*
X268819048Y-127198381D02*
X268247619Y-127198381D01*
X268533333Y-127198381D02*
X268533333Y-126198381D01*
X268438095Y-126341238D01*
X268342857Y-126436476D01*
X268247619Y-126484095D01*
X256969047Y-70000762D02*
X257111904Y-70048381D01*
X257350000Y-70048381D01*
X257445238Y-70000762D01*
X257492857Y-69953143D01*
X257540476Y-69857905D01*
X257540476Y-69762667D01*
X257492857Y-69667429D01*
X257445238Y-69619810D01*
X257350000Y-69572190D01*
X257159523Y-69524571D01*
X257064285Y-69476952D01*
X257016666Y-69429333D01*
X256969047Y-69334095D01*
X256969047Y-69238857D01*
X257016666Y-69143619D01*
X257064285Y-69096000D01*
X257159523Y-69048381D01*
X257397619Y-69048381D01*
X257540476Y-69096000D01*
X257873809Y-69048381D02*
X258111904Y-70048381D01*
X258302381Y-69334095D01*
X258492857Y-70048381D01*
X258730952Y-69048381D01*
X258873809Y-70143619D02*
X259635714Y-70143619D01*
X260350000Y-70048381D02*
X259873809Y-70048381D01*
X259873809Y-69048381D01*
X260683333Y-69524571D02*
X261016667Y-69524571D01*
X261159524Y-70048381D02*
X260683333Y-70048381D01*
X260683333Y-69048381D01*
X261159524Y-69048381D01*
X261921429Y-69524571D02*
X261588095Y-69524571D01*
X261588095Y-70048381D02*
X261588095Y-69048381D01*
X262064286Y-69048381D01*
X262302381Y-69048381D02*
X262873810Y-69048381D01*
X262588095Y-70048381D02*
X262588095Y-69048381D01*
X263730953Y-70048381D02*
X263159524Y-70048381D01*
X263445238Y-70048381D02*
X263445238Y-69048381D01*
X263350000Y-69191238D01*
X263254762Y-69286476D01*
X263159524Y-69334095D01*
X83987143Y-127150762D02*
X84130000Y-127198381D01*
X84368096Y-127198381D01*
X84463334Y-127150762D01*
X84510953Y-127103143D01*
X84558572Y-127007905D01*
X84558572Y-126912667D01*
X84510953Y-126817429D01*
X84463334Y-126769810D01*
X84368096Y-126722190D01*
X84177619Y-126674571D01*
X84082381Y-126626952D01*
X84034762Y-126579333D01*
X83987143Y-126484095D01*
X83987143Y-126388857D01*
X84034762Y-126293619D01*
X84082381Y-126246000D01*
X84177619Y-126198381D01*
X84415715Y-126198381D01*
X84558572Y-126246000D01*
X84891905Y-126198381D02*
X85130000Y-127198381D01*
X85320477Y-126484095D01*
X85510953Y-127198381D01*
X85749048Y-126198381D01*
X85891905Y-127293619D02*
X86653810Y-127293619D01*
X87368096Y-127198381D02*
X86891905Y-127198381D01*
X86891905Y-126198381D01*
X87891905Y-126198381D02*
X88082382Y-126198381D01*
X88177620Y-126246000D01*
X88272858Y-126341238D01*
X88320477Y-126531714D01*
X88320477Y-126865048D01*
X88272858Y-127055524D01*
X88177620Y-127150762D01*
X88082382Y-127198381D01*
X87891905Y-127198381D01*
X87796667Y-127150762D01*
X87701429Y-127055524D01*
X87653810Y-126865048D01*
X87653810Y-126531714D01*
X87701429Y-126341238D01*
X87796667Y-126246000D01*
X87891905Y-126198381D01*
X89320477Y-127103143D02*
X89272858Y-127150762D01*
X89130001Y-127198381D01*
X89034763Y-127198381D01*
X88891905Y-127150762D01*
X88796667Y-127055524D01*
X88749048Y-126960286D01*
X88701429Y-126769810D01*
X88701429Y-126626952D01*
X88749048Y-126436476D01*
X88796667Y-126341238D01*
X88891905Y-126246000D01*
X89034763Y-126198381D01*
X89130001Y-126198381D01*
X89272858Y-126246000D01*
X89320477Y-126293619D01*
X89749048Y-127198381D02*
X89749048Y-126198381D01*
X90320477Y-127198381D02*
X89891905Y-126626952D01*
X90320477Y-126198381D02*
X89749048Y-126769810D01*
X91272858Y-127198381D02*
X90701429Y-127198381D01*
X90987143Y-127198381D02*
X90987143Y-126198381D01*
X90891905Y-126341238D01*
X90796667Y-126436476D01*
X90701429Y-126484095D01*
X236474286Y-146200762D02*
X236617143Y-146248381D01*
X236855239Y-146248381D01*
X236950477Y-146200762D01*
X236998096Y-146153143D01*
X237045715Y-146057905D01*
X237045715Y-145962667D01*
X236998096Y-145867429D01*
X236950477Y-145819810D01*
X236855239Y-145772190D01*
X236664762Y-145724571D01*
X236569524Y-145676952D01*
X236521905Y-145629333D01*
X236474286Y-145534095D01*
X236474286Y-145438857D01*
X236521905Y-145343619D01*
X236569524Y-145296000D01*
X236664762Y-145248381D01*
X236902858Y-145248381D01*
X237045715Y-145296000D01*
X237379048Y-145248381D02*
X237617143Y-146248381D01*
X237807620Y-145534095D01*
X237998096Y-146248381D01*
X238236191Y-145248381D01*
X238379048Y-146343619D02*
X239140953Y-146343619D01*
X239379048Y-146248381D02*
X239379048Y-145248381D01*
X239712382Y-145962667D01*
X240045715Y-145248381D01*
X240045715Y-146248381D01*
X241045715Y-146248381D02*
X240474286Y-146248381D01*
X240760000Y-146248381D02*
X240760000Y-145248381D01*
X240664762Y-145391238D01*
X240569524Y-145486476D01*
X240474286Y-145534095D01*
X114800476Y-165250762D02*
X114943333Y-165298381D01*
X115181429Y-165298381D01*
X115276667Y-165250762D01*
X115324286Y-165203143D01*
X115371905Y-165107905D01*
X115371905Y-165012667D01*
X115324286Y-164917429D01*
X115276667Y-164869810D01*
X115181429Y-164822190D01*
X114990952Y-164774571D01*
X114895714Y-164726952D01*
X114848095Y-164679333D01*
X114800476Y-164584095D01*
X114800476Y-164488857D01*
X114848095Y-164393619D01*
X114895714Y-164346000D01*
X114990952Y-164298381D01*
X115229048Y-164298381D01*
X115371905Y-164346000D01*
X115705238Y-164298381D02*
X115943333Y-165298381D01*
X116133810Y-164584095D01*
X116324286Y-165298381D01*
X116562381Y-164298381D01*
X116705238Y-165393619D02*
X117467143Y-165393619D01*
X117705238Y-165298381D02*
X117705238Y-164298381D01*
X118038572Y-165012667D01*
X118371905Y-164298381D01*
X118371905Y-165298381D01*
X119038571Y-164298381D02*
X119229048Y-164298381D01*
X119324286Y-164346000D01*
X119419524Y-164441238D01*
X119467143Y-164631714D01*
X119467143Y-164965048D01*
X119419524Y-165155524D01*
X119324286Y-165250762D01*
X119229048Y-165298381D01*
X119038571Y-165298381D01*
X118943333Y-165250762D01*
X118848095Y-165155524D01*
X118800476Y-164965048D01*
X118800476Y-164631714D01*
X118848095Y-164441238D01*
X118943333Y-164346000D01*
X119038571Y-164298381D01*
X119895714Y-165298381D02*
X119895714Y-164298381D01*
X120133809Y-164298381D01*
X120276667Y-164346000D01*
X120371905Y-164441238D01*
X120419524Y-164536476D01*
X120467143Y-164726952D01*
X120467143Y-164869810D01*
X120419524Y-165060286D01*
X120371905Y-165155524D01*
X120276667Y-165250762D01*
X120133809Y-165298381D01*
X119895714Y-165298381D01*
X121419524Y-165298381D02*
X120848095Y-165298381D01*
X121133809Y-165298381D02*
X121133809Y-164298381D01*
X121038571Y-164441238D01*
X120943333Y-164536476D01*
X120848095Y-164584095D01*
X322683810Y-89050762D02*
X322826667Y-89098381D01*
X323064763Y-89098381D01*
X323160001Y-89050762D01*
X323207620Y-89003143D01*
X323255239Y-88907905D01*
X323255239Y-88812667D01*
X323207620Y-88717429D01*
X323160001Y-88669810D01*
X323064763Y-88622190D01*
X322874286Y-88574571D01*
X322779048Y-88526952D01*
X322731429Y-88479333D01*
X322683810Y-88384095D01*
X322683810Y-88288857D01*
X322731429Y-88193619D01*
X322779048Y-88146000D01*
X322874286Y-88098381D01*
X323112382Y-88098381D01*
X323255239Y-88146000D01*
X323588572Y-88098381D02*
X323826667Y-89098381D01*
X324017144Y-88384095D01*
X324207620Y-89098381D01*
X324445715Y-88098381D01*
X324588572Y-89193619D02*
X325350477Y-89193619D01*
X325588572Y-89098381D02*
X325588572Y-88098381D01*
X325921906Y-88812667D01*
X326255239Y-88098381D01*
X326255239Y-89098381D01*
X326921905Y-88098381D02*
X327112382Y-88098381D01*
X327207620Y-88146000D01*
X327302858Y-88241238D01*
X327350477Y-88431714D01*
X327350477Y-88765048D01*
X327302858Y-88955524D01*
X327207620Y-89050762D01*
X327112382Y-89098381D01*
X326921905Y-89098381D01*
X326826667Y-89050762D01*
X326731429Y-88955524D01*
X326683810Y-88765048D01*
X326683810Y-88431714D01*
X326731429Y-88241238D01*
X326826667Y-88146000D01*
X326921905Y-88098381D01*
X327779048Y-89098381D02*
X327779048Y-88098381D01*
X328350477Y-89098381D01*
X328350477Y-88098381D01*
X328826667Y-89098381D02*
X328826667Y-88098381D01*
X329160000Y-88098381D02*
X329731429Y-88098381D01*
X329445714Y-89098381D02*
X329445714Y-88098381D01*
X330255238Y-88098381D02*
X330445715Y-88098381D01*
X330540953Y-88146000D01*
X330636191Y-88241238D01*
X330683810Y-88431714D01*
X330683810Y-88765048D01*
X330636191Y-88955524D01*
X330540953Y-89050762D01*
X330445715Y-89098381D01*
X330255238Y-89098381D01*
X330160000Y-89050762D01*
X330064762Y-88955524D01*
X330017143Y-88765048D01*
X330017143Y-88431714D01*
X330064762Y-88241238D01*
X330160000Y-88146000D01*
X330255238Y-88098381D01*
X331683810Y-89098381D02*
X331350476Y-88622190D01*
X331112381Y-89098381D02*
X331112381Y-88098381D01*
X331493334Y-88098381D01*
X331588572Y-88146000D01*
X331636191Y-88193619D01*
X331683810Y-88288857D01*
X331683810Y-88431714D01*
X331636191Y-88526952D01*
X331588572Y-88574571D01*
X331493334Y-88622190D01*
X331112381Y-88622190D01*
X332636191Y-89098381D02*
X332064762Y-89098381D01*
X332350476Y-89098381D02*
X332350476Y-88098381D01*
X332255238Y-88241238D01*
X332160000Y-88336476D01*
X332064762Y-88384095D01*
X217471905Y-146200762D02*
X217614762Y-146248381D01*
X217852858Y-146248381D01*
X217948096Y-146200762D01*
X217995715Y-146153143D01*
X218043334Y-146057905D01*
X218043334Y-145962667D01*
X217995715Y-145867429D01*
X217948096Y-145819810D01*
X217852858Y-145772190D01*
X217662381Y-145724571D01*
X217567143Y-145676952D01*
X217519524Y-145629333D01*
X217471905Y-145534095D01*
X217471905Y-145438857D01*
X217519524Y-145343619D01*
X217567143Y-145296000D01*
X217662381Y-145248381D01*
X217900477Y-145248381D01*
X218043334Y-145296000D01*
X218376667Y-145248381D02*
X218614762Y-146248381D01*
X218805239Y-145534095D01*
X218995715Y-146248381D01*
X219233810Y-145248381D01*
X219376667Y-146343619D02*
X220138572Y-146343619D01*
X220376667Y-146248381D02*
X220376667Y-145248381D01*
X220948096Y-146248381D01*
X220948096Y-145248381D01*
X221948096Y-146248381D02*
X221376667Y-146248381D01*
X221662381Y-146248381D02*
X221662381Y-145248381D01*
X221567143Y-145391238D01*
X221471905Y-145486476D01*
X221376667Y-145534095D01*
X258111905Y-108100762D02*
X258254762Y-108148381D01*
X258492858Y-108148381D01*
X258588096Y-108100762D01*
X258635715Y-108053143D01*
X258683334Y-107957905D01*
X258683334Y-107862667D01*
X258635715Y-107767429D01*
X258588096Y-107719810D01*
X258492858Y-107672190D01*
X258302381Y-107624571D01*
X258207143Y-107576952D01*
X258159524Y-107529333D01*
X258111905Y-107434095D01*
X258111905Y-107338857D01*
X258159524Y-107243619D01*
X258207143Y-107196000D01*
X258302381Y-107148381D01*
X258540477Y-107148381D01*
X258683334Y-107196000D01*
X259016667Y-107148381D02*
X259254762Y-108148381D01*
X259445239Y-107434095D01*
X259635715Y-108148381D01*
X259873810Y-107148381D01*
X260016667Y-108243619D02*
X260778572Y-108243619D01*
X261207143Y-107148381D02*
X261397620Y-107148381D01*
X261492858Y-107196000D01*
X261588096Y-107291238D01*
X261635715Y-107481714D01*
X261635715Y-107815048D01*
X261588096Y-108005524D01*
X261492858Y-108100762D01*
X261397620Y-108148381D01*
X261207143Y-108148381D01*
X261111905Y-108100762D01*
X261016667Y-108005524D01*
X260969048Y-107815048D01*
X260969048Y-107481714D01*
X261016667Y-107291238D01*
X261111905Y-107196000D01*
X261207143Y-107148381D01*
X262588096Y-108148381D02*
X262016667Y-108148381D01*
X262302381Y-108148381D02*
X262302381Y-107148381D01*
X262207143Y-107291238D01*
X262111905Y-107386476D01*
X262016667Y-107434095D01*
X310880952Y-108100762D02*
X311023809Y-108148381D01*
X311261905Y-108148381D01*
X311357143Y-108100762D01*
X311404762Y-108053143D01*
X311452381Y-107957905D01*
X311452381Y-107862667D01*
X311404762Y-107767429D01*
X311357143Y-107719810D01*
X311261905Y-107672190D01*
X311071428Y-107624571D01*
X310976190Y-107576952D01*
X310928571Y-107529333D01*
X310880952Y-107434095D01*
X310880952Y-107338857D01*
X310928571Y-107243619D01*
X310976190Y-107196000D01*
X311071428Y-107148381D01*
X311309524Y-107148381D01*
X311452381Y-107196000D01*
X311785714Y-107148381D02*
X312023809Y-108148381D01*
X312214286Y-107434095D01*
X312404762Y-108148381D01*
X312642857Y-107148381D01*
X312785714Y-108243619D02*
X313547619Y-108243619D01*
X313976190Y-107148381D02*
X314166667Y-107148381D01*
X314261905Y-107196000D01*
X314357143Y-107291238D01*
X314404762Y-107481714D01*
X314404762Y-107815048D01*
X314357143Y-108005524D01*
X314261905Y-108100762D01*
X314166667Y-108148381D01*
X313976190Y-108148381D01*
X313880952Y-108100762D01*
X313785714Y-108005524D01*
X313738095Y-107815048D01*
X313738095Y-107481714D01*
X313785714Y-107291238D01*
X313880952Y-107196000D01*
X313976190Y-107148381D01*
X314833333Y-108148381D02*
X314833333Y-107148381D01*
X315214286Y-107148381D01*
X315309524Y-107196000D01*
X315357143Y-107243619D01*
X315404762Y-107338857D01*
X315404762Y-107481714D01*
X315357143Y-107576952D01*
X315309524Y-107624571D01*
X315214286Y-107672190D01*
X314833333Y-107672190D01*
X315833333Y-107624571D02*
X316166667Y-107624571D01*
X316309524Y-108148381D02*
X315833333Y-108148381D01*
X315833333Y-107148381D01*
X316309524Y-107148381D01*
X316738095Y-108148381D02*
X316738095Y-107148381D01*
X317309524Y-108148381D01*
X317309524Y-107148381D01*
X317738095Y-108100762D02*
X317880952Y-108148381D01*
X318119048Y-108148381D01*
X318214286Y-108100762D01*
X318261905Y-108053143D01*
X318309524Y-107957905D01*
X318309524Y-107862667D01*
X318261905Y-107767429D01*
X318214286Y-107719810D01*
X318119048Y-107672190D01*
X317928571Y-107624571D01*
X317833333Y-107576952D01*
X317785714Y-107529333D01*
X317738095Y-107434095D01*
X317738095Y-107338857D01*
X317785714Y-107243619D01*
X317833333Y-107196000D01*
X317928571Y-107148381D01*
X318166667Y-107148381D01*
X318309524Y-107196000D01*
X319404762Y-108243619D02*
X319309524Y-108196000D01*
X319214286Y-108100762D01*
X319071429Y-107957905D01*
X318976190Y-107910286D01*
X318880952Y-107910286D01*
X318928571Y-108148381D02*
X318833333Y-108100762D01*
X318738095Y-108005524D01*
X318690476Y-107815048D01*
X318690476Y-107481714D01*
X318738095Y-107291238D01*
X318833333Y-107196000D01*
X318928571Y-107148381D01*
X319119048Y-107148381D01*
X319214286Y-107196000D01*
X319309524Y-107291238D01*
X319357143Y-107481714D01*
X319357143Y-107815048D01*
X319309524Y-108005524D01*
X319214286Y-108100762D01*
X319119048Y-108148381D01*
X318928571Y-108148381D01*
X319785714Y-107148381D02*
X319785714Y-107957905D01*
X319833333Y-108053143D01*
X319880952Y-108100762D01*
X319976190Y-108148381D01*
X320166667Y-108148381D01*
X320261905Y-108100762D01*
X320309524Y-108053143D01*
X320357143Y-107957905D01*
X320357143Y-107148381D01*
X320785714Y-107862667D02*
X321261905Y-107862667D01*
X320690476Y-108148381D02*
X321023809Y-107148381D01*
X321357143Y-108148381D01*
X322261905Y-108148381D02*
X321928571Y-107672190D01*
X321690476Y-108148381D02*
X321690476Y-107148381D01*
X322071429Y-107148381D01*
X322166667Y-107196000D01*
X322214286Y-107243619D01*
X322261905Y-107338857D01*
X322261905Y-107481714D01*
X322214286Y-107576952D01*
X322166667Y-107624571D01*
X322071429Y-107672190D01*
X321690476Y-107672190D01*
X322690476Y-107624571D02*
X323023810Y-107624571D01*
X323166667Y-108148381D02*
X322690476Y-108148381D01*
X322690476Y-107148381D01*
X323166667Y-107148381D01*
X324119048Y-108148381D02*
X323547619Y-108148381D01*
X323833333Y-108148381D02*
X323833333Y-107148381D01*
X323738095Y-107291238D01*
X323642857Y-107386476D01*
X323547619Y-107434095D01*
X277185714Y-108100762D02*
X277328571Y-108148381D01*
X277566667Y-108148381D01*
X277661905Y-108100762D01*
X277709524Y-108053143D01*
X277757143Y-107957905D01*
X277757143Y-107862667D01*
X277709524Y-107767429D01*
X277661905Y-107719810D01*
X277566667Y-107672190D01*
X277376190Y-107624571D01*
X277280952Y-107576952D01*
X277233333Y-107529333D01*
X277185714Y-107434095D01*
X277185714Y-107338857D01*
X277233333Y-107243619D01*
X277280952Y-107196000D01*
X277376190Y-107148381D01*
X277614286Y-107148381D01*
X277757143Y-107196000D01*
X278090476Y-107148381D02*
X278328571Y-108148381D01*
X278519048Y-107434095D01*
X278709524Y-108148381D01*
X278947619Y-107148381D01*
X279090476Y-108243619D02*
X279852381Y-108243619D01*
X280090476Y-108148381D02*
X280090476Y-107148381D01*
X280471429Y-107148381D01*
X280566667Y-107196000D01*
X280614286Y-107243619D01*
X280661905Y-107338857D01*
X280661905Y-107481714D01*
X280614286Y-107576952D01*
X280566667Y-107624571D01*
X280471429Y-107672190D01*
X280090476Y-107672190D01*
X281614286Y-108148381D02*
X281042857Y-108148381D01*
X281328571Y-108148381D02*
X281328571Y-107148381D01*
X281233333Y-107291238D01*
X281138095Y-107386476D01*
X281042857Y-107434095D01*
X272431429Y-146200762D02*
X272574286Y-146248381D01*
X272812382Y-146248381D01*
X272907620Y-146200762D01*
X272955239Y-146153143D01*
X273002858Y-146057905D01*
X273002858Y-145962667D01*
X272955239Y-145867429D01*
X272907620Y-145819810D01*
X272812382Y-145772190D01*
X272621905Y-145724571D01*
X272526667Y-145676952D01*
X272479048Y-145629333D01*
X272431429Y-145534095D01*
X272431429Y-145438857D01*
X272479048Y-145343619D01*
X272526667Y-145296000D01*
X272621905Y-145248381D01*
X272860001Y-145248381D01*
X273002858Y-145296000D01*
X273336191Y-145248381D02*
X273574286Y-146248381D01*
X273764763Y-145534095D01*
X273955239Y-146248381D01*
X274193334Y-145248381D01*
X274336191Y-146343619D02*
X275098096Y-146343619D01*
X275336191Y-146248381D02*
X275336191Y-145248381D01*
X275717144Y-145248381D01*
X275812382Y-145296000D01*
X275860001Y-145343619D01*
X275907620Y-145438857D01*
X275907620Y-145581714D01*
X275860001Y-145676952D01*
X275812382Y-145724571D01*
X275717144Y-145772190D01*
X275336191Y-145772190D01*
X276336191Y-145724571D02*
X276669525Y-145724571D01*
X276812382Y-146248381D02*
X276336191Y-146248381D01*
X276336191Y-145248381D01*
X276812382Y-145248381D01*
X277812382Y-146248381D02*
X277479048Y-145772190D01*
X277240953Y-146248381D02*
X277240953Y-145248381D01*
X277621906Y-145248381D01*
X277717144Y-145296000D01*
X277764763Y-145343619D01*
X277812382Y-145438857D01*
X277812382Y-145581714D01*
X277764763Y-145676952D01*
X277717144Y-145724571D01*
X277621906Y-145772190D01*
X277240953Y-145772190D01*
X278240953Y-146248381D02*
X278240953Y-145248381D01*
X278907619Y-145248381D02*
X279098096Y-145248381D01*
X279193334Y-145296000D01*
X279288572Y-145391238D01*
X279336191Y-145581714D01*
X279336191Y-145915048D01*
X279288572Y-146105524D01*
X279193334Y-146200762D01*
X279098096Y-146248381D01*
X278907619Y-146248381D01*
X278812381Y-146200762D01*
X278717143Y-146105524D01*
X278669524Y-145915048D01*
X278669524Y-145581714D01*
X278717143Y-145391238D01*
X278812381Y-145296000D01*
X278907619Y-145248381D01*
X279764762Y-146248381D02*
X279764762Y-145248381D01*
X280002857Y-145248381D01*
X280145715Y-145296000D01*
X280240953Y-145391238D01*
X280288572Y-145486476D01*
X280336191Y-145676952D01*
X280336191Y-145819810D01*
X280288572Y-146010286D01*
X280240953Y-146105524D01*
X280145715Y-146200762D01*
X280002857Y-146248381D01*
X279764762Y-146248381D01*
X281288572Y-146248381D02*
X280717143Y-146248381D01*
X281002857Y-146248381D02*
X281002857Y-145248381D01*
X280907619Y-145391238D01*
X280812381Y-145486476D01*
X280717143Y-145534095D01*
X105711905Y-108100762D02*
X105854762Y-108148381D01*
X106092858Y-108148381D01*
X106188096Y-108100762D01*
X106235715Y-108053143D01*
X106283334Y-107957905D01*
X106283334Y-107862667D01*
X106235715Y-107767429D01*
X106188096Y-107719810D01*
X106092858Y-107672190D01*
X105902381Y-107624571D01*
X105807143Y-107576952D01*
X105759524Y-107529333D01*
X105711905Y-107434095D01*
X105711905Y-107338857D01*
X105759524Y-107243619D01*
X105807143Y-107196000D01*
X105902381Y-107148381D01*
X106140477Y-107148381D01*
X106283334Y-107196000D01*
X106616667Y-107148381D02*
X106854762Y-108148381D01*
X107045239Y-107434095D01*
X107235715Y-108148381D01*
X107473810Y-107148381D01*
X107616667Y-108243619D02*
X108378572Y-108243619D01*
X109283334Y-108243619D02*
X109188096Y-108196000D01*
X109092858Y-108100762D01*
X108950001Y-107957905D01*
X108854762Y-107910286D01*
X108759524Y-107910286D01*
X108807143Y-108148381D02*
X108711905Y-108100762D01*
X108616667Y-108005524D01*
X108569048Y-107815048D01*
X108569048Y-107481714D01*
X108616667Y-107291238D01*
X108711905Y-107196000D01*
X108807143Y-107148381D01*
X108997620Y-107148381D01*
X109092858Y-107196000D01*
X109188096Y-107291238D01*
X109235715Y-107481714D01*
X109235715Y-107815048D01*
X109188096Y-108005524D01*
X109092858Y-108100762D01*
X108997620Y-108148381D01*
X108807143Y-108148381D01*
X110188096Y-108148381D02*
X109616667Y-108148381D01*
X109902381Y-108148381D02*
X109902381Y-107148381D01*
X109807143Y-107291238D01*
X109711905Y-107386476D01*
X109616667Y-107434095D01*
X162885714Y-108100762D02*
X163028571Y-108148381D01*
X163266667Y-108148381D01*
X163361905Y-108100762D01*
X163409524Y-108053143D01*
X163457143Y-107957905D01*
X163457143Y-107862667D01*
X163409524Y-107767429D01*
X163361905Y-107719810D01*
X163266667Y-107672190D01*
X163076190Y-107624571D01*
X162980952Y-107576952D01*
X162933333Y-107529333D01*
X162885714Y-107434095D01*
X162885714Y-107338857D01*
X162933333Y-107243619D01*
X162980952Y-107196000D01*
X163076190Y-107148381D01*
X163314286Y-107148381D01*
X163457143Y-107196000D01*
X163790476Y-107148381D02*
X164028571Y-108148381D01*
X164219048Y-107434095D01*
X164409524Y-108148381D01*
X164647619Y-107148381D01*
X164790476Y-108243619D02*
X165552381Y-108243619D01*
X166361905Y-108148381D02*
X166028571Y-107672190D01*
X165790476Y-108148381D02*
X165790476Y-107148381D01*
X166171429Y-107148381D01*
X166266667Y-107196000D01*
X166314286Y-107243619D01*
X166361905Y-107338857D01*
X166361905Y-107481714D01*
X166314286Y-107576952D01*
X166266667Y-107624571D01*
X166171429Y-107672190D01*
X165790476Y-107672190D01*
X167314286Y-108148381D02*
X166742857Y-108148381D01*
X167028571Y-108148381D02*
X167028571Y-107148381D01*
X166933333Y-107291238D01*
X166838095Y-107386476D01*
X166742857Y-107434095D01*
X331954762Y-127150762D02*
X332097619Y-127198381D01*
X332335715Y-127198381D01*
X332430953Y-127150762D01*
X332478572Y-127103143D01*
X332526191Y-127007905D01*
X332526191Y-126912667D01*
X332478572Y-126817429D01*
X332430953Y-126769810D01*
X332335715Y-126722190D01*
X332145238Y-126674571D01*
X332050000Y-126626952D01*
X332002381Y-126579333D01*
X331954762Y-126484095D01*
X331954762Y-126388857D01*
X332002381Y-126293619D01*
X332050000Y-126246000D01*
X332145238Y-126198381D01*
X332383334Y-126198381D01*
X332526191Y-126246000D01*
X332859524Y-126198381D02*
X333097619Y-127198381D01*
X333288096Y-126484095D01*
X333478572Y-127198381D01*
X333716667Y-126198381D01*
X333859524Y-127293619D02*
X334621429Y-127293619D01*
X335430953Y-127198381D02*
X335097619Y-126722190D01*
X334859524Y-127198381D02*
X334859524Y-126198381D01*
X335240477Y-126198381D01*
X335335715Y-126246000D01*
X335383334Y-126293619D01*
X335430953Y-126388857D01*
X335430953Y-126531714D01*
X335383334Y-126626952D01*
X335335715Y-126674571D01*
X335240477Y-126722190D01*
X334859524Y-126722190D01*
X335859524Y-126674571D02*
X336192858Y-126674571D01*
X336335715Y-127198381D02*
X335859524Y-127198381D01*
X335859524Y-126198381D01*
X336335715Y-126198381D01*
X336621429Y-126198381D02*
X337192858Y-126198381D01*
X336907143Y-127198381D02*
X336907143Y-126198381D01*
X337526191Y-126198381D02*
X337526191Y-127007905D01*
X337573810Y-127103143D01*
X337621429Y-127150762D01*
X337716667Y-127198381D01*
X337907144Y-127198381D01*
X338002382Y-127150762D01*
X338050001Y-127103143D01*
X338097620Y-127007905D01*
X338097620Y-126198381D01*
X339145239Y-127198381D02*
X338811905Y-126722190D01*
X338573810Y-127198381D02*
X338573810Y-126198381D01*
X338954763Y-126198381D01*
X339050001Y-126246000D01*
X339097620Y-126293619D01*
X339145239Y-126388857D01*
X339145239Y-126531714D01*
X339097620Y-126626952D01*
X339050001Y-126674571D01*
X338954763Y-126722190D01*
X338573810Y-126722190D01*
X339573810Y-127198381D02*
X339573810Y-126198381D01*
X340145239Y-127198381D01*
X340145239Y-126198381D01*
X341145239Y-127198381D02*
X340573810Y-127198381D01*
X340859524Y-127198381D02*
X340859524Y-126198381D01*
X340764286Y-126341238D01*
X340669048Y-126436476D01*
X340573810Y-126484095D01*
X313642857Y-70000762D02*
X313785714Y-70048381D01*
X314023810Y-70048381D01*
X314119048Y-70000762D01*
X314166667Y-69953143D01*
X314214286Y-69857905D01*
X314214286Y-69762667D01*
X314166667Y-69667429D01*
X314119048Y-69619810D01*
X314023810Y-69572190D01*
X313833333Y-69524571D01*
X313738095Y-69476952D01*
X313690476Y-69429333D01*
X313642857Y-69334095D01*
X313642857Y-69238857D01*
X313690476Y-69143619D01*
X313738095Y-69096000D01*
X313833333Y-69048381D01*
X314071429Y-69048381D01*
X314214286Y-69096000D01*
X314547619Y-69048381D02*
X314785714Y-70048381D01*
X314976191Y-69334095D01*
X315166667Y-70048381D01*
X315404762Y-69048381D01*
X315547619Y-70143619D02*
X316309524Y-70143619D01*
X317119048Y-70048381D02*
X316785714Y-69572190D01*
X316547619Y-70048381D02*
X316547619Y-69048381D01*
X316928572Y-69048381D01*
X317023810Y-69096000D01*
X317071429Y-69143619D01*
X317119048Y-69238857D01*
X317119048Y-69381714D01*
X317071429Y-69476952D01*
X317023810Y-69524571D01*
X316928572Y-69572190D01*
X316547619Y-69572190D01*
X317547619Y-70048381D02*
X317547619Y-69048381D01*
X318547619Y-69096000D02*
X318452381Y-69048381D01*
X318309524Y-69048381D01*
X318166666Y-69096000D01*
X318071428Y-69191238D01*
X318023809Y-69286476D01*
X317976190Y-69476952D01*
X317976190Y-69619810D01*
X318023809Y-69810286D01*
X318071428Y-69905524D01*
X318166666Y-70000762D01*
X318309524Y-70048381D01*
X318404762Y-70048381D01*
X318547619Y-70000762D01*
X318595238Y-69953143D01*
X318595238Y-69619810D01*
X318404762Y-69619810D01*
X319023809Y-70048381D02*
X319023809Y-69048381D01*
X319023809Y-69524571D02*
X319595238Y-69524571D01*
X319595238Y-70048381D02*
X319595238Y-69048381D01*
X319928571Y-69048381D02*
X320500000Y-69048381D01*
X320214285Y-70048381D02*
X320214285Y-69048381D01*
X321357143Y-70048381D02*
X320785714Y-70048381D01*
X321071428Y-70048381D02*
X321071428Y-69048381D01*
X320976190Y-69191238D01*
X320880952Y-69286476D01*
X320785714Y-69334095D01*
X131159524Y-127150762D02*
X131302381Y-127198381D01*
X131540477Y-127198381D01*
X131635715Y-127150762D01*
X131683334Y-127103143D01*
X131730953Y-127007905D01*
X131730953Y-126912667D01*
X131683334Y-126817429D01*
X131635715Y-126769810D01*
X131540477Y-126722190D01*
X131350000Y-126674571D01*
X131254762Y-126626952D01*
X131207143Y-126579333D01*
X131159524Y-126484095D01*
X131159524Y-126388857D01*
X131207143Y-126293619D01*
X131254762Y-126246000D01*
X131350000Y-126198381D01*
X131588096Y-126198381D01*
X131730953Y-126246000D01*
X132064286Y-126198381D02*
X132302381Y-127198381D01*
X132492858Y-126484095D01*
X132683334Y-127198381D01*
X132921429Y-126198381D01*
X133064286Y-127293619D02*
X133826191Y-127293619D01*
X134016667Y-127150762D02*
X134159524Y-127198381D01*
X134397620Y-127198381D01*
X134492858Y-127150762D01*
X134540477Y-127103143D01*
X134588096Y-127007905D01*
X134588096Y-126912667D01*
X134540477Y-126817429D01*
X134492858Y-126769810D01*
X134397620Y-126722190D01*
X134207143Y-126674571D01*
X134111905Y-126626952D01*
X134064286Y-126579333D01*
X134016667Y-126484095D01*
X134016667Y-126388857D01*
X134064286Y-126293619D01*
X134111905Y-126246000D01*
X134207143Y-126198381D01*
X134445239Y-126198381D01*
X134588096Y-126246000D01*
X135540477Y-127198381D02*
X134969048Y-127198381D01*
X135254762Y-127198381D02*
X135254762Y-126198381D01*
X135159524Y-126341238D01*
X135064286Y-126436476D01*
X134969048Y-126484095D01*
X279821429Y-127150762D02*
X279964286Y-127198381D01*
X280202382Y-127198381D01*
X280297620Y-127150762D01*
X280345239Y-127103143D01*
X280392858Y-127007905D01*
X280392858Y-126912667D01*
X280345239Y-126817429D01*
X280297620Y-126769810D01*
X280202382Y-126722190D01*
X280011905Y-126674571D01*
X279916667Y-126626952D01*
X279869048Y-126579333D01*
X279821429Y-126484095D01*
X279821429Y-126388857D01*
X279869048Y-126293619D01*
X279916667Y-126246000D01*
X280011905Y-126198381D01*
X280250001Y-126198381D01*
X280392858Y-126246000D01*
X280726191Y-126198381D02*
X280964286Y-127198381D01*
X281154763Y-126484095D01*
X281345239Y-127198381D01*
X281583334Y-126198381D01*
X281726191Y-127293619D02*
X282488096Y-127293619D01*
X282678572Y-127150762D02*
X282821429Y-127198381D01*
X283059525Y-127198381D01*
X283154763Y-127150762D01*
X283202382Y-127103143D01*
X283250001Y-127007905D01*
X283250001Y-126912667D01*
X283202382Y-126817429D01*
X283154763Y-126769810D01*
X283059525Y-126722190D01*
X282869048Y-126674571D01*
X282773810Y-126626952D01*
X282726191Y-126579333D01*
X282678572Y-126484095D01*
X282678572Y-126388857D01*
X282726191Y-126293619D01*
X282773810Y-126246000D01*
X282869048Y-126198381D01*
X283107144Y-126198381D01*
X283250001Y-126246000D01*
X283678572Y-126674571D02*
X284011906Y-126674571D01*
X284154763Y-127198381D02*
X283678572Y-127198381D01*
X283678572Y-126198381D01*
X284154763Y-126198381D01*
X284583334Y-127198381D02*
X284583334Y-126198381D01*
X284916668Y-126912667D01*
X285250001Y-126198381D01*
X285250001Y-127198381D01*
X285726191Y-127198381D02*
X285726191Y-126198381D01*
X286773810Y-127103143D02*
X286726191Y-127150762D01*
X286583334Y-127198381D01*
X286488096Y-127198381D01*
X286345238Y-127150762D01*
X286250000Y-127055524D01*
X286202381Y-126960286D01*
X286154762Y-126769810D01*
X286154762Y-126626952D01*
X286202381Y-126436476D01*
X286250000Y-126341238D01*
X286345238Y-126246000D01*
X286488096Y-126198381D01*
X286583334Y-126198381D01*
X286726191Y-126246000D01*
X286773810Y-126293619D01*
X287392857Y-126198381D02*
X287583334Y-126198381D01*
X287678572Y-126246000D01*
X287773810Y-126341238D01*
X287821429Y-126531714D01*
X287821429Y-126865048D01*
X287773810Y-127055524D01*
X287678572Y-127150762D01*
X287583334Y-127198381D01*
X287392857Y-127198381D01*
X287297619Y-127150762D01*
X287202381Y-127055524D01*
X287154762Y-126865048D01*
X287154762Y-126531714D01*
X287202381Y-126341238D01*
X287297619Y-126246000D01*
X287392857Y-126198381D01*
X288726191Y-127198381D02*
X288250000Y-127198381D01*
X288250000Y-126198381D01*
X289250000Y-126198381D02*
X289440477Y-126198381D01*
X289535715Y-126246000D01*
X289630953Y-126341238D01*
X289678572Y-126531714D01*
X289678572Y-126865048D01*
X289630953Y-127055524D01*
X289535715Y-127150762D01*
X289440477Y-127198381D01*
X289250000Y-127198381D01*
X289154762Y-127150762D01*
X289059524Y-127055524D01*
X289011905Y-126865048D01*
X289011905Y-126531714D01*
X289059524Y-126341238D01*
X289154762Y-126246000D01*
X289250000Y-126198381D01*
X290107143Y-127198381D02*
X290107143Y-126198381D01*
X290678572Y-127198381D01*
X290678572Y-126198381D01*
X291678572Y-127198381D02*
X291107143Y-127198381D01*
X291392857Y-127198381D02*
X291392857Y-126198381D01*
X291297619Y-126341238D01*
X291202381Y-126436476D01*
X291107143Y-126484095D01*
X88948095Y-146200762D02*
X89090952Y-146248381D01*
X89329048Y-146248381D01*
X89424286Y-146200762D01*
X89471905Y-146153143D01*
X89519524Y-146057905D01*
X89519524Y-145962667D01*
X89471905Y-145867429D01*
X89424286Y-145819810D01*
X89329048Y-145772190D01*
X89138571Y-145724571D01*
X89043333Y-145676952D01*
X88995714Y-145629333D01*
X88948095Y-145534095D01*
X88948095Y-145438857D01*
X88995714Y-145343619D01*
X89043333Y-145296000D01*
X89138571Y-145248381D01*
X89376667Y-145248381D01*
X89519524Y-145296000D01*
X89852857Y-145248381D02*
X90090952Y-146248381D01*
X90281429Y-145534095D01*
X90471905Y-146248381D01*
X90710000Y-145248381D01*
X90852857Y-146343619D02*
X91614762Y-146343619D01*
X91805238Y-146200762D02*
X91948095Y-146248381D01*
X92186191Y-146248381D01*
X92281429Y-146200762D01*
X92329048Y-146153143D01*
X92376667Y-146057905D01*
X92376667Y-145962667D01*
X92329048Y-145867429D01*
X92281429Y-145819810D01*
X92186191Y-145772190D01*
X91995714Y-145724571D01*
X91900476Y-145676952D01*
X91852857Y-145629333D01*
X91805238Y-145534095D01*
X91805238Y-145438857D01*
X91852857Y-145343619D01*
X91900476Y-145296000D01*
X91995714Y-145248381D01*
X92233810Y-145248381D01*
X92376667Y-145296000D01*
X92805238Y-146248381D02*
X92805238Y-145248381D01*
X92805238Y-145724571D02*
X93376667Y-145724571D01*
X93376667Y-146248381D02*
X93376667Y-145248381D01*
X93852857Y-146248381D02*
X93852857Y-145248381D01*
X94662381Y-145724571D02*
X94329047Y-145724571D01*
X94329047Y-146248381D02*
X94329047Y-145248381D01*
X94805238Y-145248381D01*
X95043333Y-145248381D02*
X95614762Y-145248381D01*
X95329047Y-146248381D02*
X95329047Y-145248381D01*
X96471905Y-146248381D02*
X95900476Y-146248381D01*
X96186190Y-146248381D02*
X96186190Y-145248381D01*
X96090952Y-145391238D01*
X95995714Y-145486476D01*
X95900476Y-145534095D01*
X210558571Y-165250762D02*
X210701428Y-165298381D01*
X210939524Y-165298381D01*
X211034762Y-165250762D01*
X211082381Y-165203143D01*
X211130000Y-165107905D01*
X211130000Y-165012667D01*
X211082381Y-164917429D01*
X211034762Y-164869810D01*
X210939524Y-164822190D01*
X210749047Y-164774571D01*
X210653809Y-164726952D01*
X210606190Y-164679333D01*
X210558571Y-164584095D01*
X210558571Y-164488857D01*
X210606190Y-164393619D01*
X210653809Y-164346000D01*
X210749047Y-164298381D01*
X210987143Y-164298381D01*
X211130000Y-164346000D01*
X211463333Y-164298381D02*
X211701428Y-165298381D01*
X211891905Y-164584095D01*
X212082381Y-165298381D01*
X212320476Y-164298381D01*
X212463333Y-165393619D02*
X213225238Y-165393619D01*
X213415714Y-165250762D02*
X213558571Y-165298381D01*
X213796667Y-165298381D01*
X213891905Y-165250762D01*
X213939524Y-165203143D01*
X213987143Y-165107905D01*
X213987143Y-165012667D01*
X213939524Y-164917429D01*
X213891905Y-164869810D01*
X213796667Y-164822190D01*
X213606190Y-164774571D01*
X213510952Y-164726952D01*
X213463333Y-164679333D01*
X213415714Y-164584095D01*
X213415714Y-164488857D01*
X213463333Y-164393619D01*
X213510952Y-164346000D01*
X213606190Y-164298381D01*
X213844286Y-164298381D01*
X213987143Y-164346000D01*
X214415714Y-165298381D02*
X214415714Y-164298381D01*
X214796667Y-164298381D01*
X214891905Y-164346000D01*
X214939524Y-164393619D01*
X214987143Y-164488857D01*
X214987143Y-164631714D01*
X214939524Y-164726952D01*
X214891905Y-164774571D01*
X214796667Y-164822190D01*
X214415714Y-164822190D01*
X215368095Y-165012667D02*
X215844286Y-165012667D01*
X215272857Y-165298381D02*
X215606190Y-164298381D01*
X215939524Y-165298381D01*
X216844286Y-165203143D02*
X216796667Y-165250762D01*
X216653810Y-165298381D01*
X216558572Y-165298381D01*
X216415714Y-165250762D01*
X216320476Y-165155524D01*
X216272857Y-165060286D01*
X216225238Y-164869810D01*
X216225238Y-164726952D01*
X216272857Y-164536476D01*
X216320476Y-164441238D01*
X216415714Y-164346000D01*
X216558572Y-164298381D01*
X216653810Y-164298381D01*
X216796667Y-164346000D01*
X216844286Y-164393619D01*
X217272857Y-164774571D02*
X217606191Y-164774571D01*
X217749048Y-165298381D02*
X217272857Y-165298381D01*
X217272857Y-164298381D01*
X217749048Y-164298381D01*
X218701429Y-165298381D02*
X218130000Y-165298381D01*
X218415714Y-165298381D02*
X218415714Y-164298381D01*
X218320476Y-164441238D01*
X218225238Y-164536476D01*
X218130000Y-164584095D01*
X182054762Y-108100762D02*
X182197619Y-108148381D01*
X182435715Y-108148381D01*
X182530953Y-108100762D01*
X182578572Y-108053143D01*
X182626191Y-107957905D01*
X182626191Y-107862667D01*
X182578572Y-107767429D01*
X182530953Y-107719810D01*
X182435715Y-107672190D01*
X182245238Y-107624571D01*
X182150000Y-107576952D01*
X182102381Y-107529333D01*
X182054762Y-107434095D01*
X182054762Y-107338857D01*
X182102381Y-107243619D01*
X182150000Y-107196000D01*
X182245238Y-107148381D01*
X182483334Y-107148381D01*
X182626191Y-107196000D01*
X182959524Y-107148381D02*
X183197619Y-108148381D01*
X183388096Y-107434095D01*
X183578572Y-108148381D01*
X183816667Y-107148381D01*
X183959524Y-108243619D02*
X184721429Y-108243619D01*
X184816667Y-107148381D02*
X185388096Y-107148381D01*
X185102381Y-108148381D02*
X185102381Y-107148381D01*
X186245239Y-108148381D02*
X185673810Y-108148381D01*
X185959524Y-108148381D02*
X185959524Y-107148381D01*
X185864286Y-107291238D01*
X185769048Y-107386476D01*
X185673810Y-107434095D01*
X220011905Y-108100762D02*
X220154762Y-108148381D01*
X220392858Y-108148381D01*
X220488096Y-108100762D01*
X220535715Y-108053143D01*
X220583334Y-107957905D01*
X220583334Y-107862667D01*
X220535715Y-107767429D01*
X220488096Y-107719810D01*
X220392858Y-107672190D01*
X220202381Y-107624571D01*
X220107143Y-107576952D01*
X220059524Y-107529333D01*
X220011905Y-107434095D01*
X220011905Y-107338857D01*
X220059524Y-107243619D01*
X220107143Y-107196000D01*
X220202381Y-107148381D01*
X220440477Y-107148381D01*
X220583334Y-107196000D01*
X220916667Y-107148381D02*
X221154762Y-108148381D01*
X221345239Y-107434095D01*
X221535715Y-108148381D01*
X221773810Y-107148381D01*
X221916667Y-108243619D02*
X222678572Y-108243619D01*
X222916667Y-107148381D02*
X222916667Y-107957905D01*
X222964286Y-108053143D01*
X223011905Y-108100762D01*
X223107143Y-108148381D01*
X223297620Y-108148381D01*
X223392858Y-108100762D01*
X223440477Y-108053143D01*
X223488096Y-107957905D01*
X223488096Y-107148381D01*
X224488096Y-108148381D02*
X223916667Y-108148381D01*
X224202381Y-108148381D02*
X224202381Y-107148381D01*
X224107143Y-107291238D01*
X224011905Y-107386476D01*
X223916667Y-107434095D01*
X291783333Y-108100762D02*
X291926190Y-108148381D01*
X292164286Y-108148381D01*
X292259524Y-108100762D01*
X292307143Y-108053143D01*
X292354762Y-107957905D01*
X292354762Y-107862667D01*
X292307143Y-107767429D01*
X292259524Y-107719810D01*
X292164286Y-107672190D01*
X291973809Y-107624571D01*
X291878571Y-107576952D01*
X291830952Y-107529333D01*
X291783333Y-107434095D01*
X291783333Y-107338857D01*
X291830952Y-107243619D01*
X291878571Y-107196000D01*
X291973809Y-107148381D01*
X292211905Y-107148381D01*
X292354762Y-107196000D01*
X292688095Y-107148381D02*
X292926190Y-108148381D01*
X293116667Y-107434095D01*
X293307143Y-108148381D01*
X293545238Y-107148381D01*
X293688095Y-108243619D02*
X294450000Y-108243619D01*
X294688095Y-107148381D02*
X294688095Y-107957905D01*
X294735714Y-108053143D01*
X294783333Y-108100762D01*
X294878571Y-108148381D01*
X295069048Y-108148381D01*
X295164286Y-108100762D01*
X295211905Y-108053143D01*
X295259524Y-107957905D01*
X295259524Y-107148381D01*
X295735714Y-108148381D02*
X295735714Y-107148381D01*
X296307143Y-108148381D01*
X296307143Y-107148381D01*
X296783333Y-108148381D02*
X296783333Y-107148381D01*
X297021428Y-107148381D01*
X297164286Y-107196000D01*
X297259524Y-107291238D01*
X297307143Y-107386476D01*
X297354762Y-107576952D01*
X297354762Y-107719810D01*
X297307143Y-107910286D01*
X297259524Y-108005524D01*
X297164286Y-108100762D01*
X297021428Y-108148381D01*
X296783333Y-108148381D01*
X297783333Y-107624571D02*
X298116667Y-107624571D01*
X298259524Y-108148381D02*
X297783333Y-108148381D01*
X297783333Y-107148381D01*
X298259524Y-107148381D01*
X299259524Y-108148381D02*
X298926190Y-107672190D01*
X298688095Y-108148381D02*
X298688095Y-107148381D01*
X299069048Y-107148381D01*
X299164286Y-107196000D01*
X299211905Y-107243619D01*
X299259524Y-107338857D01*
X299259524Y-107481714D01*
X299211905Y-107576952D01*
X299164286Y-107624571D01*
X299069048Y-107672190D01*
X298688095Y-107672190D01*
X299640476Y-108100762D02*
X299783333Y-108148381D01*
X300021429Y-108148381D01*
X300116667Y-108100762D01*
X300164286Y-108053143D01*
X300211905Y-107957905D01*
X300211905Y-107862667D01*
X300164286Y-107767429D01*
X300116667Y-107719810D01*
X300021429Y-107672190D01*
X299830952Y-107624571D01*
X299735714Y-107576952D01*
X299688095Y-107529333D01*
X299640476Y-107434095D01*
X299640476Y-107338857D01*
X299688095Y-107243619D01*
X299735714Y-107196000D01*
X299830952Y-107148381D01*
X300069048Y-107148381D01*
X300211905Y-107196000D01*
X301211905Y-108053143D02*
X301164286Y-108100762D01*
X301021429Y-108148381D01*
X300926191Y-108148381D01*
X300783333Y-108100762D01*
X300688095Y-108005524D01*
X300640476Y-107910286D01*
X300592857Y-107719810D01*
X300592857Y-107576952D01*
X300640476Y-107386476D01*
X300688095Y-107291238D01*
X300783333Y-107196000D01*
X300926191Y-107148381D01*
X301021429Y-107148381D01*
X301164286Y-107196000D01*
X301211905Y-107243619D01*
X301830952Y-107148381D02*
X302021429Y-107148381D01*
X302116667Y-107196000D01*
X302211905Y-107291238D01*
X302259524Y-107481714D01*
X302259524Y-107815048D01*
X302211905Y-108005524D01*
X302116667Y-108100762D01*
X302021429Y-108148381D01*
X301830952Y-108148381D01*
X301735714Y-108100762D01*
X301640476Y-108005524D01*
X301592857Y-107815048D01*
X301592857Y-107481714D01*
X301640476Y-107291238D01*
X301735714Y-107196000D01*
X301830952Y-107148381D01*
X303259524Y-108148381D02*
X302926190Y-107672190D01*
X302688095Y-108148381D02*
X302688095Y-107148381D01*
X303069048Y-107148381D01*
X303164286Y-107196000D01*
X303211905Y-107243619D01*
X303259524Y-107338857D01*
X303259524Y-107481714D01*
X303211905Y-107576952D01*
X303164286Y-107624571D01*
X303069048Y-107672190D01*
X302688095Y-107672190D01*
X303688095Y-107624571D02*
X304021429Y-107624571D01*
X304164286Y-108148381D02*
X303688095Y-108148381D01*
X303688095Y-107148381D01*
X304164286Y-107148381D01*
X305116667Y-108148381D02*
X304545238Y-108148381D01*
X304830952Y-108148381D02*
X304830952Y-107148381D01*
X304735714Y-107291238D01*
X304640476Y-107386476D01*
X304545238Y-107434095D01*
X276661905Y-70000762D02*
X276804762Y-70048381D01*
X277042858Y-70048381D01*
X277138096Y-70000762D01*
X277185715Y-69953143D01*
X277233334Y-69857905D01*
X277233334Y-69762667D01*
X277185715Y-69667429D01*
X277138096Y-69619810D01*
X277042858Y-69572190D01*
X276852381Y-69524571D01*
X276757143Y-69476952D01*
X276709524Y-69429333D01*
X276661905Y-69334095D01*
X276661905Y-69238857D01*
X276709524Y-69143619D01*
X276757143Y-69096000D01*
X276852381Y-69048381D01*
X277090477Y-69048381D01*
X277233334Y-69096000D01*
X277566667Y-69048381D02*
X277804762Y-70048381D01*
X277995239Y-69334095D01*
X278185715Y-70048381D01*
X278423810Y-69048381D01*
X278566667Y-70143619D02*
X279328572Y-70143619D01*
X279566667Y-69048381D02*
X279566667Y-69857905D01*
X279614286Y-69953143D01*
X279661905Y-70000762D01*
X279757143Y-70048381D01*
X279947620Y-70048381D01*
X280042858Y-70000762D01*
X280090477Y-69953143D01*
X280138096Y-69857905D01*
X280138096Y-69048381D01*
X280614286Y-70048381D02*
X280614286Y-69048381D01*
X280995239Y-69048381D01*
X281090477Y-69096000D01*
X281138096Y-69143619D01*
X281185715Y-69238857D01*
X281185715Y-69381714D01*
X281138096Y-69476952D01*
X281090477Y-69524571D01*
X280995239Y-69572190D01*
X280614286Y-69572190D01*
X282138096Y-70048381D02*
X281566667Y-70048381D01*
X281852381Y-70048381D02*
X281852381Y-69048381D01*
X281757143Y-69191238D01*
X281661905Y-69286476D01*
X281566667Y-69334095D01*
X179467143Y-146200762D02*
X179610000Y-146248381D01*
X179848096Y-146248381D01*
X179943334Y-146200762D01*
X179990953Y-146153143D01*
X180038572Y-146057905D01*
X180038572Y-145962667D01*
X179990953Y-145867429D01*
X179943334Y-145819810D01*
X179848096Y-145772190D01*
X179657619Y-145724571D01*
X179562381Y-145676952D01*
X179514762Y-145629333D01*
X179467143Y-145534095D01*
X179467143Y-145438857D01*
X179514762Y-145343619D01*
X179562381Y-145296000D01*
X179657619Y-145248381D01*
X179895715Y-145248381D01*
X180038572Y-145296000D01*
X180371905Y-145248381D02*
X180610000Y-146248381D01*
X180800477Y-145534095D01*
X180990953Y-146248381D01*
X181229048Y-145248381D01*
X181371905Y-146343619D02*
X182133810Y-146343619D01*
X182229048Y-145248381D02*
X182562381Y-146248381D01*
X182895715Y-145248381D01*
X183752858Y-146248381D02*
X183181429Y-146248381D01*
X183467143Y-146248381D02*
X183467143Y-145248381D01*
X183371905Y-145391238D01*
X183276667Y-145486476D01*
X183181429Y-145534095D01*
X124714286Y-108100762D02*
X124857143Y-108148381D01*
X125095239Y-108148381D01*
X125190477Y-108100762D01*
X125238096Y-108053143D01*
X125285715Y-107957905D01*
X125285715Y-107862667D01*
X125238096Y-107767429D01*
X125190477Y-107719810D01*
X125095239Y-107672190D01*
X124904762Y-107624571D01*
X124809524Y-107576952D01*
X124761905Y-107529333D01*
X124714286Y-107434095D01*
X124714286Y-107338857D01*
X124761905Y-107243619D01*
X124809524Y-107196000D01*
X124904762Y-107148381D01*
X125142858Y-107148381D01*
X125285715Y-107196000D01*
X125619048Y-107148381D02*
X125857143Y-108148381D01*
X126047620Y-107434095D01*
X126238096Y-108148381D01*
X126476191Y-107148381D01*
X126619048Y-108243619D02*
X127380953Y-108243619D01*
X127523810Y-107148381D02*
X127761905Y-108148381D01*
X127952382Y-107434095D01*
X128142858Y-108148381D01*
X128380953Y-107148381D01*
X129285715Y-108148381D02*
X128714286Y-108148381D01*
X129000000Y-108148381D02*
X129000000Y-107148381D01*
X128904762Y-107291238D01*
X128809524Y-107386476D01*
X128714286Y-107434095D01*
X141319524Y-146200762D02*
X141462381Y-146248381D01*
X141700477Y-146248381D01*
X141795715Y-146200762D01*
X141843334Y-146153143D01*
X141890953Y-146057905D01*
X141890953Y-145962667D01*
X141843334Y-145867429D01*
X141795715Y-145819810D01*
X141700477Y-145772190D01*
X141510000Y-145724571D01*
X141414762Y-145676952D01*
X141367143Y-145629333D01*
X141319524Y-145534095D01*
X141319524Y-145438857D01*
X141367143Y-145343619D01*
X141414762Y-145296000D01*
X141510000Y-145248381D01*
X141748096Y-145248381D01*
X141890953Y-145296000D01*
X142224286Y-145248381D02*
X142462381Y-146248381D01*
X142652858Y-145534095D01*
X142843334Y-146248381D01*
X143081429Y-145248381D01*
X143224286Y-146343619D02*
X143986191Y-146343619D01*
X144129048Y-145248381D02*
X144795715Y-146248381D01*
X144795715Y-145248381D02*
X144129048Y-146248381D01*
X145700477Y-146248381D02*
X145129048Y-146248381D01*
X145414762Y-146248381D02*
X145414762Y-145248381D01*
X145319524Y-145391238D01*
X145224286Y-145486476D01*
X145129048Y-145534095D01*
X201057143Y-108100762D02*
X201200000Y-108148381D01*
X201438096Y-108148381D01*
X201533334Y-108100762D01*
X201580953Y-108053143D01*
X201628572Y-107957905D01*
X201628572Y-107862667D01*
X201580953Y-107767429D01*
X201533334Y-107719810D01*
X201438096Y-107672190D01*
X201247619Y-107624571D01*
X201152381Y-107576952D01*
X201104762Y-107529333D01*
X201057143Y-107434095D01*
X201057143Y-107338857D01*
X201104762Y-107243619D01*
X201152381Y-107196000D01*
X201247619Y-107148381D01*
X201485715Y-107148381D01*
X201628572Y-107196000D01*
X201961905Y-107148381D02*
X202200000Y-108148381D01*
X202390477Y-107434095D01*
X202580953Y-108148381D01*
X202819048Y-107148381D01*
X202961905Y-108243619D02*
X203723810Y-108243619D01*
X204152381Y-107672190D02*
X204152381Y-108148381D01*
X203819048Y-107148381D02*
X204152381Y-107672190D01*
X204485715Y-107148381D01*
X205342858Y-108148381D02*
X204771429Y-108148381D01*
X205057143Y-108148381D02*
X205057143Y-107148381D01*
X204961905Y-107291238D01*
X204866667Y-107386476D01*
X204771429Y-107434095D01*
X122269524Y-146200762D02*
X122412381Y-146248381D01*
X122650477Y-146248381D01*
X122745715Y-146200762D01*
X122793334Y-146153143D01*
X122840953Y-146057905D01*
X122840953Y-145962667D01*
X122793334Y-145867429D01*
X122745715Y-145819810D01*
X122650477Y-145772190D01*
X122460000Y-145724571D01*
X122364762Y-145676952D01*
X122317143Y-145629333D01*
X122269524Y-145534095D01*
X122269524Y-145438857D01*
X122317143Y-145343619D01*
X122364762Y-145296000D01*
X122460000Y-145248381D01*
X122698096Y-145248381D01*
X122840953Y-145296000D01*
X123174286Y-145248381D02*
X123412381Y-146248381D01*
X123602858Y-145534095D01*
X123793334Y-146248381D01*
X124031429Y-145248381D01*
X124174286Y-146343619D02*
X124936191Y-146343619D01*
X125079048Y-145248381D02*
X125745715Y-145248381D01*
X125079048Y-146248381D01*
X125745715Y-146248381D01*
X126650477Y-146248381D02*
X126079048Y-146248381D01*
X126364762Y-146248381D02*
X126364762Y-145248381D01*
X126269524Y-145391238D01*
X126174286Y-145486476D01*
X126079048Y-145534095D01*
X266843333Y-89050762D02*
X266986190Y-89098381D01*
X267224286Y-89098381D01*
X267319524Y-89050762D01*
X267367143Y-89003143D01*
X267414762Y-88907905D01*
X267414762Y-88812667D01*
X267367143Y-88717429D01*
X267319524Y-88669810D01*
X267224286Y-88622190D01*
X267033809Y-88574571D01*
X266938571Y-88526952D01*
X266890952Y-88479333D01*
X266843333Y-88384095D01*
X266843333Y-88288857D01*
X266890952Y-88193619D01*
X266938571Y-88146000D01*
X267033809Y-88098381D01*
X267271905Y-88098381D01*
X267414762Y-88146000D01*
X267748095Y-88098381D02*
X267986190Y-89098381D01*
X268176667Y-88384095D01*
X268367143Y-89098381D01*
X268605238Y-88098381D01*
X268748095Y-89193619D02*
X269510000Y-89193619D01*
X269652857Y-88098381D02*
X270319524Y-88098381D01*
X269652857Y-89098381D01*
X270319524Y-89098381D01*
X270700476Y-88574571D02*
X271033810Y-88574571D01*
X271176667Y-89098381D02*
X270700476Y-89098381D01*
X270700476Y-88098381D01*
X271176667Y-88098381D01*
X272176667Y-89098381D02*
X271843333Y-88622190D01*
X271605238Y-89098381D02*
X271605238Y-88098381D01*
X271986191Y-88098381D01*
X272081429Y-88146000D01*
X272129048Y-88193619D01*
X272176667Y-88288857D01*
X272176667Y-88431714D01*
X272129048Y-88526952D01*
X272081429Y-88574571D01*
X271986191Y-88622190D01*
X271605238Y-88622190D01*
X272795714Y-88098381D02*
X272986191Y-88098381D01*
X273081429Y-88146000D01*
X273176667Y-88241238D01*
X273224286Y-88431714D01*
X273224286Y-88765048D01*
X273176667Y-88955524D01*
X273081429Y-89050762D01*
X272986191Y-89098381D01*
X272795714Y-89098381D01*
X272700476Y-89050762D01*
X272605238Y-88955524D01*
X272557619Y-88765048D01*
X272557619Y-88431714D01*
X272605238Y-88241238D01*
X272700476Y-88146000D01*
X272795714Y-88098381D01*
X274176667Y-89098381D02*
X273605238Y-89098381D01*
X273890952Y-89098381D02*
X273890952Y-88098381D01*
X273795714Y-88241238D01*
X273700476Y-88336476D01*
X273605238Y-88384095D01*
X328978095Y-146200762D02*
X329120952Y-146248381D01*
X329359048Y-146248381D01*
X329454286Y-146200762D01*
X329501905Y-146153143D01*
X329549524Y-146057905D01*
X329549524Y-145962667D01*
X329501905Y-145867429D01*
X329454286Y-145819810D01*
X329359048Y-145772190D01*
X329168571Y-145724571D01*
X329073333Y-145676952D01*
X329025714Y-145629333D01*
X328978095Y-145534095D01*
X328978095Y-145438857D01*
X329025714Y-145343619D01*
X329073333Y-145296000D01*
X329168571Y-145248381D01*
X329406667Y-145248381D01*
X329549524Y-145296000D01*
X329882857Y-145248381D02*
X330120952Y-146248381D01*
X330311429Y-145534095D01*
X330501905Y-146248381D01*
X330740000Y-145248381D01*
X330882857Y-146343619D02*
X331644762Y-146343619D01*
X331835238Y-146200762D02*
X331978095Y-146248381D01*
X332216191Y-146248381D01*
X332311429Y-146200762D01*
X332359048Y-146153143D01*
X332406667Y-146057905D01*
X332406667Y-145962667D01*
X332359048Y-145867429D01*
X332311429Y-145819810D01*
X332216191Y-145772190D01*
X332025714Y-145724571D01*
X331930476Y-145676952D01*
X331882857Y-145629333D01*
X331835238Y-145534095D01*
X331835238Y-145438857D01*
X331882857Y-145343619D01*
X331930476Y-145296000D01*
X332025714Y-145248381D01*
X332263810Y-145248381D01*
X332406667Y-145296000D01*
X332835238Y-146248381D02*
X332835238Y-145248381D01*
X332835238Y-145724571D02*
X333406667Y-145724571D01*
X333406667Y-146248381D02*
X333406667Y-145248381D01*
X333882857Y-146248381D02*
X333882857Y-145248381D01*
X334692381Y-145724571D02*
X334359047Y-145724571D01*
X334359047Y-146248381D02*
X334359047Y-145248381D01*
X334835238Y-145248381D01*
X335073333Y-145248381D02*
X335644762Y-145248381D01*
X335359047Y-146248381D02*
X335359047Y-145248381D01*
X335930476Y-145343619D02*
X335978095Y-145296000D01*
X336073333Y-145248381D01*
X336311429Y-145248381D01*
X336406667Y-145296000D01*
X336454286Y-145343619D01*
X336501905Y-145438857D01*
X336501905Y-145534095D01*
X336454286Y-145676952D01*
X335882857Y-146248381D01*
X336501905Y-146248381D01*
M02*
