M48
;DRILL file {KiCad 4.0.7-e2-6376~60~ubuntu17.10.1} date Thu Apr 12 22:41:42 2018
;FORMAT={2:4/ absolute / inch / suppress leading zeros}
FMAT,2
INCH,TZ
T1C0.016
T2C0.039
T3C0.059
T4C0.067
T5C0.120
T6C0.157
%
G90
G05
M72
T1
X70500Y-35000
X72000Y-35500
X117500Y-49000
X117500Y-50500
X128079Y-48205
X129000Y-32000
T2
X59500Y-31000
X60500Y-31000
X61500Y-31000
X62500Y-31000
X63500Y-31000
X64500Y-31000
X65500Y-31000
X66500Y-31000
X67500Y-31000
X68500Y-31000
X69500Y-31000
X70500Y-31000
X71500Y-31000
X72500Y-31000
X73500Y-31000
X74500Y-31000
T3
X33000Y-52000
X35000Y-59500
X35500Y-51000
X37500Y-37000
X37500Y-58500
X40000Y-36000
X41000Y-44500
X43500Y-43500
X43500Y-52000
X45000Y-37000
X45000Y-67000
X46000Y-51000
X47500Y-36000
X47500Y-59500
X47500Y-66000
X48500Y-44500
X50000Y-58500
X51000Y-43500
X51000Y-52000
X52500Y-37000
X53500Y-51000
X55000Y-36000
X55000Y-59500
X56000Y-44500
X57500Y-58500
X58500Y-43500
X58500Y-52000
X60000Y-37000
X61000Y-51000
X62500Y-36000
X62500Y-59500
X63500Y-44500
X65000Y-58500
X66000Y-43500
X66000Y-52000
X67500Y-37000
X68500Y-51000
X70000Y-36000
X70000Y-59500
X71000Y-44500
X72500Y-58500
X73500Y-43500
X73500Y-52000
X75000Y-37000
X76000Y-51000
X77500Y-36000
X77500Y-59500
X78500Y-44500
X80000Y-58500
X81000Y-43500
X81000Y-52000
X82500Y-37000
X83000Y-67000
X83500Y-51000
X85000Y-36000
X85000Y-59500
X85500Y-66000
X86000Y-44500
X87500Y-58500
X88500Y-43500
X88500Y-52000
X90000Y-37000
X91000Y-51000
X92500Y-36000
X92500Y-59500
X93500Y-44500
X95000Y-58500
X96000Y-43500
X96000Y-52000
X97500Y-37000
X98500Y-51000
X100000Y-36000
X100000Y-59500
X101000Y-29500
X101000Y-44500
X102500Y-58500
X103500Y-28500
X103500Y-43500
X103500Y-52000
X105000Y-37000
X106000Y-51000
X107500Y-36000
X107500Y-59500
X108500Y-29500
X108500Y-44500
X110000Y-58500
X111000Y-28500
X111000Y-43500
X111000Y-52000
X112500Y-37000
X113500Y-51000
X115000Y-36000
X115000Y-59500
X116000Y-29500
X116000Y-44500
X117500Y-58500
X118500Y-28500
X118500Y-43500
X118500Y-52000
X120000Y-37000
X121000Y-51000
X122500Y-36000
X123500Y-29500
X123500Y-44500
X126000Y-28500
X126000Y-43500
X127500Y-37000
X129500Y-59500
X130000Y-36000
X131000Y-44500
X131000Y-52000
X132000Y-58500
X133500Y-43500
X133500Y-51000
T4
X32500Y-53000
X34500Y-60500
X36500Y-53000
X37000Y-38000
X38500Y-60500
X40500Y-45500
X41000Y-38000
X43000Y-53000
X44500Y-38000
X44500Y-45500
X44500Y-68000
X47000Y-53000
X47000Y-60500
X48000Y-45500
X48500Y-38000
X48500Y-68000
X50500Y-53000
X51000Y-60500
X52000Y-38000
X52000Y-45500
X54500Y-53000
X54500Y-60500
X55500Y-45500
X56000Y-38000
X58000Y-53000
X58500Y-60500
X59500Y-38000
X59500Y-45500
X62000Y-53000
X62000Y-60500
X63000Y-45500
X63500Y-38000
X65500Y-53000
X66000Y-60500
X67000Y-38000
X67000Y-45500
X69500Y-53000
X69500Y-60500
X70500Y-45500
X71000Y-38000
X73000Y-53000
X73500Y-60500
X74500Y-38000
X74500Y-45500
X77000Y-53000
X77000Y-60500
X78000Y-45500
X78500Y-38000
X80500Y-53000
X81000Y-60500
X82000Y-38000
X82000Y-45500
X82500Y-68000
X84500Y-53000
X84500Y-60500
X85500Y-45500
X86000Y-38000
X86500Y-68000
X88000Y-53000
X88500Y-60500
X89500Y-38000
X89500Y-45500
X92000Y-53000
X92000Y-60500
X93000Y-45500
X93500Y-38000
X95500Y-53000
X96000Y-60500
X97000Y-38000
X97000Y-45500
X99500Y-53000
X99500Y-60500
X100500Y-30500
X100500Y-45500
X101000Y-38000
X103000Y-53000
X103500Y-60500
X104500Y-30500
X104500Y-38000
X104500Y-45500
X107000Y-53000
X107000Y-60500
X108000Y-30500
X108000Y-45500
X108500Y-38000
X110500Y-53000
X111000Y-60500
X112000Y-30500
X112000Y-38000
X112000Y-45500
X114500Y-53000
X114500Y-60500
X115500Y-30500
X115500Y-45500
X116000Y-38000
X118000Y-53000
X118500Y-60500
X119500Y-30500
X119500Y-38000
X119500Y-45500
X122000Y-53000
X123000Y-30500
X123000Y-45500
X123500Y-38000
X127000Y-30500
X127000Y-38000
X127000Y-45500
X129000Y-60500
X130500Y-45500
X130500Y-53000
X131000Y-38000
X133000Y-60500
X134500Y-45500
X134500Y-53000
T5
X31815Y-57744
X41185Y-57744
X64815Y-65244
X104185Y-65244
X126315Y-57744
X127815Y-50244
X135685Y-57744
X137185Y-50244
T6
X31815Y-63744
X34500Y-53000
X36500Y-60500
X39000Y-38000
X41185Y-63744
X42500Y-45500
X45000Y-53000
X46500Y-38000
X46500Y-68000
X49000Y-60500
X50000Y-45500
X52500Y-53000
X54000Y-38000
X56500Y-60500
X57500Y-45500
X60000Y-53000
X61500Y-38000
X64000Y-60500
X64815Y-71244
X65000Y-45500
X67500Y-53000
X69000Y-38000
X71500Y-60500
X72500Y-45500
X75000Y-53000
X76500Y-38000
X79000Y-60500
X80000Y-45500
X82500Y-53000
X84000Y-38000
X84500Y-68000
X86500Y-60500
X87500Y-45500
X90000Y-53000
X91500Y-38000
X94000Y-60500
X95000Y-45500
X97500Y-53000
X99000Y-38000
X101500Y-60500
X102500Y-30500
X102500Y-45500
X104185Y-71244
X105000Y-53000
X106500Y-38000
X109000Y-60500
X110000Y-30500
X110000Y-45500
X112500Y-53000
X114000Y-38000
X116500Y-60500
X117500Y-30500
X117500Y-45500
X120000Y-53000
X121500Y-38000
X125000Y-30500
X125000Y-45500
X126315Y-63744
X127815Y-56244
X129000Y-38000
X131000Y-60500
X132500Y-45500
X132500Y-53000
X135685Y-63744
X137185Y-56244
T0
M30
