G04 #@! TF.FileFunction,Soldermask,Top*
%FSLAX46Y46*%
G04 Gerber Fmt 4.6, Leading zero omitted, Abs format (unit mm)*
G04 Created by KiCad (PCBNEW 4.0.7-e2-6376~60~ubuntu17.10.1) date Thu Apr 12 22:39:31 2018*
%MOMM*%
%LPD*%
G01*
G04 APERTURE LIST*
%ADD10C,0.100000*%
%ADD11R,2.100000X2.100000*%
%ADD12O,2.100000X2.100000*%
%ADD13C,2.600000*%
%ADD14C,4.400000*%
%ADD15C,2.100000*%
%ADD16C,3.450000*%
G04 APERTURE END LIST*
D10*
D11*
X151130000Y-78740000D03*
D12*
X153670000Y-78740000D03*
X156210000Y-78740000D03*
X158750000Y-78740000D03*
X161290000Y-78740000D03*
X163830000Y-78740000D03*
X166370000Y-78740000D03*
X168910000Y-78740000D03*
X171450000Y-78740000D03*
X173990000Y-78740000D03*
X176530000Y-78740000D03*
X179070000Y-78740000D03*
X181610000Y-78740000D03*
X184150000Y-78740000D03*
X186690000Y-78740000D03*
X189230000Y-78740000D03*
D13*
X101600000Y-91440000D03*
X95250000Y-93980000D03*
D14*
X99060000Y-96520000D03*
D15*
X93980000Y-96520000D03*
X104140000Y-96520000D03*
D13*
X120650000Y-91440000D03*
X114300000Y-93980000D03*
D14*
X118110000Y-96520000D03*
D15*
X113030000Y-96520000D03*
X123190000Y-96520000D03*
D13*
X139700000Y-91440000D03*
X133350000Y-93980000D03*
D14*
X137160000Y-96520000D03*
D15*
X132080000Y-96520000D03*
X142240000Y-96520000D03*
D13*
X158750000Y-91440000D03*
X152400000Y-93980000D03*
D14*
X156210000Y-96520000D03*
D15*
X151130000Y-96520000D03*
X161290000Y-96520000D03*
D13*
X177800000Y-91440000D03*
X171450000Y-93980000D03*
D14*
X175260000Y-96520000D03*
D15*
X170180000Y-96520000D03*
X180340000Y-96520000D03*
D13*
X196850000Y-91440000D03*
X190500000Y-93980000D03*
D14*
X194310000Y-96520000D03*
D15*
X189230000Y-96520000D03*
X199390000Y-96520000D03*
D13*
X215900000Y-91440000D03*
X209550000Y-93980000D03*
D14*
X213360000Y-96520000D03*
D15*
X208280000Y-96520000D03*
X218440000Y-96520000D03*
D13*
X234950000Y-91440000D03*
X228600000Y-93980000D03*
D14*
X232410000Y-96520000D03*
D15*
X227330000Y-96520000D03*
X237490000Y-96520000D03*
D13*
X254000000Y-91440000D03*
X247650000Y-93980000D03*
D14*
X251460000Y-96520000D03*
D15*
X246380000Y-96520000D03*
X256540000Y-96520000D03*
D13*
X116840000Y-129540000D03*
X110490000Y-132080000D03*
D14*
X114300000Y-134620000D03*
D15*
X109220000Y-134620000D03*
X119380000Y-134620000D03*
D13*
X203200000Y-148590000D03*
X196850000Y-151130000D03*
D14*
X200660000Y-153670000D03*
D15*
X195580000Y-153670000D03*
X205740000Y-153670000D03*
D13*
X165100000Y-148590000D03*
X158750000Y-151130000D03*
D14*
X162560000Y-153670000D03*
D15*
X157480000Y-153670000D03*
X167640000Y-153670000D03*
D13*
X339090000Y-110490000D03*
X332740000Y-113030000D03*
D14*
X336550000Y-115570000D03*
D15*
X331470000Y-115570000D03*
X341630000Y-115570000D03*
D13*
X307340000Y-129540000D03*
X300990000Y-132080000D03*
D14*
X304800000Y-134620000D03*
D15*
X299720000Y-134620000D03*
X309880000Y-134620000D03*
D13*
X260350000Y-148590000D03*
X254000000Y-151130000D03*
D14*
X257810000Y-153670000D03*
D15*
X252730000Y-153670000D03*
X262890000Y-153670000D03*
D13*
X154940000Y-129540000D03*
X148590000Y-132080000D03*
D14*
X152400000Y-134620000D03*
D15*
X147320000Y-134620000D03*
X157480000Y-134620000D03*
D13*
X311150000Y-91440000D03*
X304800000Y-93980000D03*
D14*
X308610000Y-96520000D03*
D15*
X303530000Y-96520000D03*
X313690000Y-96520000D03*
D13*
X300990000Y-72390000D03*
X294640000Y-74930000D03*
D14*
X298450000Y-77470000D03*
D15*
X293370000Y-77470000D03*
X303530000Y-77470000D03*
D13*
X148590000Y-110490000D03*
X142240000Y-113030000D03*
D14*
X146050000Y-115570000D03*
D15*
X140970000Y-115570000D03*
X151130000Y-115570000D03*
D13*
X173990000Y-129540000D03*
X167640000Y-132080000D03*
D14*
X171450000Y-134620000D03*
D15*
X166370000Y-134620000D03*
X176530000Y-134620000D03*
D13*
X298450000Y-148590000D03*
X292100000Y-151130000D03*
D14*
X295910000Y-153670000D03*
D15*
X290830000Y-153670000D03*
X300990000Y-153670000D03*
D13*
X193040000Y-129540000D03*
X186690000Y-132080000D03*
D14*
X190500000Y-134620000D03*
D15*
X185420000Y-134620000D03*
X195580000Y-134620000D03*
D13*
X212090000Y-129540000D03*
X205740000Y-132080000D03*
D14*
X209550000Y-134620000D03*
D15*
X204470000Y-134620000D03*
X214630000Y-134620000D03*
D13*
X292100000Y-91440000D03*
X285750000Y-93980000D03*
D14*
X289560000Y-96520000D03*
D15*
X284480000Y-96520000D03*
X294640000Y-96520000D03*
D13*
X243840000Y-110490000D03*
X237490000Y-113030000D03*
D14*
X241300000Y-115570000D03*
D15*
X236220000Y-115570000D03*
X246380000Y-115570000D03*
D13*
X231140000Y-129540000D03*
X224790000Y-132080000D03*
D14*
X228600000Y-134620000D03*
D15*
X223520000Y-134620000D03*
X233680000Y-134620000D03*
D13*
X250190000Y-129540000D03*
X243840000Y-132080000D03*
D14*
X247650000Y-134620000D03*
D15*
X242570000Y-134620000D03*
X252730000Y-134620000D03*
D13*
X269240000Y-129540000D03*
X262890000Y-132080000D03*
D14*
X266700000Y-134620000D03*
D15*
X261620000Y-134620000D03*
X271780000Y-134620000D03*
D13*
X262890000Y-72390000D03*
X256540000Y-74930000D03*
D14*
X260350000Y-77470000D03*
D15*
X255270000Y-77470000D03*
X265430000Y-77470000D03*
D13*
X90170000Y-129540000D03*
X83820000Y-132080000D03*
D14*
X87630000Y-134620000D03*
D15*
X82550000Y-134620000D03*
X92710000Y-134620000D03*
D13*
X241300000Y-148590000D03*
X234950000Y-151130000D03*
D14*
X238760000Y-153670000D03*
D15*
X233680000Y-153670000D03*
X243840000Y-153670000D03*
D13*
X120650000Y-167640000D03*
X114300000Y-170180000D03*
D14*
X118110000Y-172720000D03*
D15*
X113030000Y-172720000D03*
X123190000Y-172720000D03*
D13*
X330200000Y-91440000D03*
X323850000Y-93980000D03*
D14*
X327660000Y-96520000D03*
D15*
X322580000Y-96520000D03*
X332740000Y-96520000D03*
D13*
X222250000Y-148590000D03*
X215900000Y-151130000D03*
D14*
X219710000Y-153670000D03*
D15*
X214630000Y-153670000D03*
X224790000Y-153670000D03*
D13*
X262890000Y-110490000D03*
X256540000Y-113030000D03*
D14*
X260350000Y-115570000D03*
D15*
X255270000Y-115570000D03*
X265430000Y-115570000D03*
D13*
X320040000Y-110490000D03*
X313690000Y-113030000D03*
D14*
X317500000Y-115570000D03*
D15*
X312420000Y-115570000D03*
X322580000Y-115570000D03*
D13*
X281940000Y-110490000D03*
X275590000Y-113030000D03*
D14*
X279400000Y-115570000D03*
D15*
X274320000Y-115570000D03*
X284480000Y-115570000D03*
D13*
X279400000Y-148590000D03*
X273050000Y-151130000D03*
D14*
X276860000Y-153670000D03*
D15*
X271780000Y-153670000D03*
X281940000Y-153670000D03*
D13*
X110490000Y-110490000D03*
X104140000Y-113030000D03*
D14*
X107950000Y-115570000D03*
D15*
X102870000Y-115570000D03*
X113030000Y-115570000D03*
D13*
X167640000Y-110490000D03*
X161290000Y-113030000D03*
D14*
X165100000Y-115570000D03*
D15*
X160020000Y-115570000D03*
X170180000Y-115570000D03*
D13*
X339090000Y-129540000D03*
X332740000Y-132080000D03*
D14*
X336550000Y-134620000D03*
D15*
X331470000Y-134620000D03*
X341630000Y-134620000D03*
D14*
X348450000Y-142860000D03*
X324650000Y-142860000D03*
D16*
X324650000Y-127620000D03*
X348450000Y-127620000D03*
D13*
X320040000Y-72390000D03*
X313690000Y-74930000D03*
D14*
X317500000Y-77470000D03*
D15*
X312420000Y-77470000D03*
X322580000Y-77470000D03*
D13*
X135890000Y-129540000D03*
X129540000Y-132080000D03*
D14*
X133350000Y-134620000D03*
D15*
X128270000Y-134620000D03*
X138430000Y-134620000D03*
D13*
X288290000Y-129540000D03*
X281940000Y-132080000D03*
D14*
X285750000Y-134620000D03*
D15*
X280670000Y-134620000D03*
X290830000Y-134620000D03*
D13*
X95250000Y-148590000D03*
X88900000Y-151130000D03*
D14*
X92710000Y-153670000D03*
D15*
X87630000Y-153670000D03*
X97790000Y-153670000D03*
D14*
X104610000Y-161910000D03*
X80810000Y-161910000D03*
D16*
X80810000Y-146670000D03*
X104610000Y-146670000D03*
D13*
X217170000Y-167640000D03*
X210820000Y-170180000D03*
D14*
X214630000Y-172720000D03*
D15*
X209550000Y-172720000D03*
X219710000Y-172720000D03*
D14*
X264630000Y-180960000D03*
X164630000Y-180960000D03*
D16*
X164630000Y-165720000D03*
X264630000Y-165720000D03*
D13*
X186690000Y-110490000D03*
X180340000Y-113030000D03*
D14*
X184150000Y-115570000D03*
D15*
X179070000Y-115570000D03*
X189230000Y-115570000D03*
D13*
X224790000Y-110490000D03*
X218440000Y-113030000D03*
D14*
X222250000Y-115570000D03*
D15*
X217170000Y-115570000D03*
X227330000Y-115570000D03*
D13*
X300990000Y-110490000D03*
X294640000Y-113030000D03*
D14*
X298450000Y-115570000D03*
D15*
X293370000Y-115570000D03*
X303530000Y-115570000D03*
D13*
X281940000Y-72390000D03*
X275590000Y-74930000D03*
D14*
X279400000Y-77470000D03*
D15*
X274320000Y-77470000D03*
X284480000Y-77470000D03*
D13*
X184150000Y-148590000D03*
X177800000Y-151130000D03*
D14*
X181610000Y-153670000D03*
D15*
X176530000Y-153670000D03*
X186690000Y-153670000D03*
D13*
X129540000Y-110490000D03*
X123190000Y-113030000D03*
D14*
X127000000Y-115570000D03*
D15*
X121920000Y-115570000D03*
X132080000Y-115570000D03*
D13*
X146050000Y-148590000D03*
X139700000Y-151130000D03*
D14*
X143510000Y-153670000D03*
D15*
X138430000Y-153670000D03*
X148590000Y-153670000D03*
D13*
X205740000Y-110490000D03*
X199390000Y-113030000D03*
D14*
X203200000Y-115570000D03*
D15*
X198120000Y-115570000D03*
X208280000Y-115570000D03*
D13*
X127000000Y-148590000D03*
X120650000Y-151130000D03*
D14*
X124460000Y-153670000D03*
D15*
X119380000Y-153670000D03*
X129540000Y-153670000D03*
D13*
X273050000Y-91440000D03*
X266700000Y-93980000D03*
D14*
X270510000Y-96520000D03*
D15*
X265430000Y-96520000D03*
X275590000Y-96520000D03*
D13*
X335280000Y-148590000D03*
X328930000Y-151130000D03*
D14*
X332740000Y-153670000D03*
D15*
X327660000Y-153670000D03*
X337820000Y-153670000D03*
D14*
X344640000Y-161910000D03*
X320840000Y-161910000D03*
D16*
X320840000Y-146670000D03*
X344640000Y-146670000D03*
M02*
